<?xml version="1.0" encoding="UTF-8"?>
<svg version="1.1" xmlns="http://www.w3.org/2000/svg" width="500" height="500">
<path d="M0 0 C0.98560913 0.38235306 1.97121826 0.76470612 2.98669434 1.15864563 C6.24509593 2.42526591 9.4973969 3.70685251 12.75 4.98828125 C15.06532143 5.8910872 17.38108611 6.79275713 19.69726562 7.69335938 C24.57352218 9.59069417 29.44764094 11.49338028 34.3203125 13.39990234 C45.0963242 17.6142488 55.89529905 21.76914619 66.69226074 25.92944336 C71.45406825 27.76489183 76.21479486 29.60313477 80.9755249 31.44137573 C95.03530509 36.87000841 109.09790974 42.29128844 123.16378784 47.70410156 C126.44878734 48.9685684 129.73331598 50.23425268 133.01782227 51.5 C142.08429035 54.99108487 151.15403059 58.46926083 160.26171875 61.8515625 C160.96162933 62.11249191 161.66153992 62.37342133 162.38265991 62.64225769 C165.46762283 63.79227222 168.55458123 64.93402294 171.64941406 66.05737305 C183.28890651 70.37859426 183.28890651 70.37859426 185.75 75.30078125 C185.85126809 77.68894284 185.89365732 80.0489144 185.8918457 82.4375 C185.89705734 83.54038109 185.89705734 83.54038109 185.90237427 84.6655426 C185.909736 86.26591228 185.91507916 87.86629221 185.91866493 89.4666748 C185.92583362 92.00683838 185.9415065 94.54680913 185.96000671 97.08691406 C186.01243315 104.31068148 186.06037667 111.53434755 186.07592773 118.75830078 C186.08606216 123.17638075 186.11553148 127.59398148 186.15724754 132.01187134 C186.16949318 133.68938557 186.17469066 135.36696772 186.17244911 137.04452515 C186.16317593 146.2563415 186.61156394 153.88620715 190.75 162.30078125 C195.90927404 182.23621612 195.97709411 202.86231147 195.75 223.30078125 C186.84 223.30078125 177.93 223.30078125 168.75 223.30078125 C167.94118905 175.17652949 167.94118905 175.17652949 176.28662109 156.94360352 C178.62573391 150.77079734 178.23206548 144.24971068 178.26171875 137.73828125 C178.27859005 136.33722383 178.29674354 134.93618132 178.31611633 133.53515625 C178.36335717 129.87250429 178.39333308 126.20991279 178.41955566 122.54705811 C178.44949312 118.7994798 178.49597765 115.05210936 178.54101562 111.3046875 C178.62675323 103.97015583 178.69422858 96.63560855 178.75 89.30078125 C177.70513428 89.70578857 176.66026855 90.1107959 175.58374023 90.52807617 C152.88998805 99.32171891 130.1771506 108.06398208 107.4375 116.73828125 C106.28103973 117.17943268 105.12457947 117.62058411 103.93307495 118.07510376 C99.26864482 119.85434277 94.60418904 121.63351451 89.93968201 123.41255188 C78.3730296 127.82468798 66.81077309 132.24826651 55.25 136.67578125 C54.29481476 137.04147217 53.33962952 137.40716309 52.35549927 137.78393555 C42.0578036 141.72659032 31.76365532 145.67819399 21.4765625 149.6484375 C19.669925 150.34522295 17.86328444 151.04200045 16.05664062 151.73876953 C12.70805731 153.03033259 9.36053989 154.32460498 6.01367188 155.62060547 C3.13123419 156.7360518 0.24458759 157.83892793 -2.64746094 158.92919922 C-4.76229291 159.73437176 -6.8692146 160.56208579 -8.95410156 161.44189453 C-17.87348765 164.99993286 -26.53432501 161.08223425 -35.01171875 157.6875 C-35.93465729 157.32606903 -36.85759583 156.96463806 -37.8085022 156.59225464 C-39.80591453 155.80913387 -41.80188566 155.02232911 -43.79653931 154.23220825 C-49.27183454 152.06380557 -54.7580772 149.92332974 -60.2421875 147.77734375 C-61.96309349 147.10249687 -61.96309349 147.10249687 -63.71876526 146.41401672 C-76.30280402 141.48357125 -88.93129295 136.67128112 -101.5625 131.86328125 C-106.17737148 130.10492208 -110.79188892 128.34563563 -115.40625 126.5859375 C-116.54857086 126.15035019 -117.69089172 125.71476288 -118.86782837 125.26597595 C-126.94749382 122.18341545 -135.02221858 119.08816849 -143.09375 115.984375 C-144.7837336 115.33452133 -144.7837336 115.33452133 -146.50785828 114.67153931 C-152.02719467 112.54822583 -157.54531777 110.42181747 -163.06176758 108.29101562 C-172.66124438 104.58554999 -182.26710272 100.90567915 -191.91796875 97.3359375 C-194.29203207 96.45185032 -196.66575237 95.56684799 -199.03939819 94.68164062 C-201.17507033 93.89102003 -203.31625687 93.11703755 -205.45825195 92.34375 C-206.72247369 91.87321644 -207.98641008 91.40191515 -209.25 90.9296875 C-210.3225 90.5385376 -211.395 90.1473877 -212.5 89.74438477 C-215.74129748 88.04287624 -217.27804608 86.36745958 -219.25 83.30078125 C-219.97337738 78.23713962 -220.17299459 76.61984804 -217.20239258 72.37451172 C-214.11952945 68.78125775 -210.78327186 67.47467157 -206.3828125 65.9609375 C-205.22263359 65.53618889 -205.22263359 65.53618889 -204.03901672 65.1028595 C-202.36729573 64.49319568 -200.69252035 63.89185523 -199.0151062 63.29803467 C-196.31517787 62.34210068 -193.62386135 61.3647868 -190.93383789 60.38134766 C-188.1303359 59.35664708 -185.32644261 58.3332323 -182.52009583 57.31634521 C-174.30633509 54.33922202 -166.14788871 51.23052217 -158.00213623 48.07281494 C-154.00209212 46.52260403 -149.99900342 44.9802932 -145.99609375 43.4375 C-144.73759613 42.95222839 -144.73759613 42.95222839 -143.45367432 42.45715332 C-130.55896057 37.48848194 -117.64430137 32.57179052 -104.73291016 27.64666748 C-92.07710438 22.81897083 -79.42291501 17.98726492 -66.77734375 13.1328125 C-65.70521637 12.72141525 -64.63308899 12.31001801 -63.5284729 11.88615417 C-58.48374224 9.95033825 -53.43957713 8.01307691 -48.39648438 6.07299805 C-44.10577409 4.42317182 -39.80841887 2.79161827 -35.50848389 1.16601562 C-33.38340009 0.35188737 -31.27148554 -0.48960871 -29.16064453 -1.33984375 C-27.9539209 -1.8090625 -26.74719727 -2.27828125 -25.50390625 -2.76171875 C-24.49787354 -3.16519531 -23.49184082 -3.56867188 -22.45532227 -3.984375 C-14.4683419 -5.76561337 -7.37292104 -2.93670721 0 0 Z " fill="#252638" transform="translate(262.25,136.69921875)"/>
<path d="M0 0 C6.57720569 0.55840402 12.21463371 2.79631298 18.32421875 5.20703125 C19.43925781 5.64001526 20.55429688 6.07299927 21.703125 6.519104 C24.73655424 7.69835877 27.76738411 8.88401931 30.79726791 10.07234573 C33.97238963 11.31562157 37.15094415 12.55005065 40.3293457 13.78491211 C44.92909727 15.57265047 49.52801796 17.3624911 54.12581158 19.15525913 C65.84955931 23.7260188 77.58949672 28.25437451 89.33389282 32.77182007 C92.61293153 34.03380134 95.89088743 35.29856174 99.16870117 36.5637207 C103.95762941 38.41073686 108.75207361 40.24266377 113.55072021 42.06427002 C115.78474797 42.91776449 118.01122178 43.78839452 120.23681641 44.66357422 C121.4438623 45.12393066 122.6509082 45.58428711 123.89453125 46.05859375 C125.37143433 46.63371704 125.37143433 46.63371704 126.87817383 47.22045898 C133.81060605 48.95153399 139.83073292 48.19867823 146.4609375 45.609375 C147.17406097 45.34453308 147.88718445 45.07969116 148.62191772 44.80682373 C151.08715373 43.88611391 153.54326309 42.9431386 156 42 C157.9218458 41.27445035 159.84406486 40.54988882 161.76660156 39.82617188 C168.39471554 37.32326699 175.00992704 34.78712624 181.625 32.25 C184.04037098 31.32548767 186.45581807 30.40117416 188.87133789 29.47705078 C195.03769004 27.11734708 201.20305779 24.75508357 207.36810303 22.39196777 C214.25984157 19.75062689 221.15248286 17.11164299 228.04498291 14.47229004 C233.15546897 12.51523173 238.26576135 10.55767238 243.37548828 8.59863281 C244.7715052 8.06355606 244.7715052 8.06355606 246.19572449 7.51766968 C247.90798399 6.8613522 249.62016033 6.20481767 251.33222961 5.54800415 C252.83855757 4.97070751 254.34568305 4.39548602 255.85372925 3.82269287 C257.30755912 3.26542139 258.75698926 2.69655809 260.20217896 2.11724854 C263.73052839 0.72563072 266.15396453 0 270 0 C270 16.83 270 33.66 270 51 C252.71633871 59.0657086 252.71633871 59.0657086 244.08227539 62.72924805 C241.27449158 63.92244418 238.46756491 65.11758359 235.66186523 66.31567383 C233.22720753 67.3552445 230.79245045 68.39457784 228.35731506 69.43302917 C217.30253876 74.14759532 206.25826675 78.8866948 195.21261597 83.62258911 C191.67514407 85.13920621 188.13753385 86.65550003 184.59985352 88.17163086 C183.46676254 88.65777359 182.33367157 89.14391632 181.16624451 89.64479065 C178.90072911 90.61456225 176.63361577 91.58060976 174.36488342 92.54283142 C168.97376812 94.83476059 163.60724194 97.16196745 158.2915163 99.62332058 C155.75924896 100.79292533 153.21747696 101.94098495 150.67469597 103.08751869 C148.8883225 103.90363346 147.11605635 104.75040808 145.34437561 105.59794617 C136.29194027 109.66072993 136.29194027 109.66072993 131.40161133 108.11303711 C129.91893421 107.44187517 128.45198344 106.73521009 127 106 C125.22911154 105.26678143 123.455131 104.54100233 121.67871094 103.82128906 C119.69564878 102.97317162 117.71429364 102.12105525 115.734375 101.265625 C114.64727737 100.79928146 113.56017975 100.33293793 112.44013977 99.85246277 C108.87519648 98.32191781 105.31257901 96.78603918 101.75 95.25 C99.88924459 94.44977295 98.02823511 93.65013898 96.16719532 92.85057354 C75.91993959 84.15105662 55.7014121 75.38480941 35.50097656 66.57714844 C25.67611336 62.29802551 15.84962889 58.04228813 5.90602112 54.04478455 C1.10172972 52.10172972 1.10172972 52.10172972 0 51 C-0.09333705 49.40389018 -0.11745372 47.80366572 -0.11352539 46.20483398 C-0.11344986 45.18385117 -0.11337433 44.16286835 -0.11329651 43.11094666 C-0.10813522 42.0005452 -0.10297394 40.89014374 -0.09765625 39.74609375 C-0.0962413 38.61551041 -0.09482635 37.48492706 -0.09336853 36.32008362 C-0.08775019 32.69252935 -0.07519458 29.06503576 -0.0625 25.4375 C-0.05748736 22.98502693 -0.05292405 20.5325529 -0.04882812 18.08007812 C-0.0377748 12.05336455 -0.02101884 6.02668661 0 0 Z " fill="#252638" transform="translate(111,260)"/>
</svg>
