<?xml version="1.0" standalone="no"?>
<!DOCTYPE svg PUBLIC "-//W3C//DTD SVG 20010904//EN"
 "http://www.w3.org/TR/2001/REC-SVG-20010904/DTD/svg10.dtd">
<svg version="1.0" xmlns="http://www.w3.org/2000/svg"
 width="525.000000pt" height="160.000000pt" viewBox="0 0 525.000000 160.000000"
 preserveAspectRatio="xMidYMid meet">

<g transform="translate(0.000000,160.000000) scale(0.100000,-0.100000)"
fill="#000000" stroke="none">
<path d="M192 1565 c-62 -19 -106 -57 -136 -117 l-26 -52 0 -596 0 -596 26
-52 c30 -61 74 -98 140 -118 68 -20 1149 -21 1216 0 63 19 110 57 141 115 l27
49 0 602 0 602 -27 49 c-31 58 -78 96 -141 115 -65 20 -1156 19 -1220 -1z
m424 -332 c23 -12 58 -41 77 -64 49 -56 60 -117 55 -294 -3 -137 -4 -143 -33
-191 -19 -30 -49 -60 -79 -79 l-49 -30 -179 -3 -178 -3 0 346 0 347 173 -4
c154 -3 176 -5 213 -25z m617 11 c92 -31 160 -147 142 -241 -23 -123 -101
-184 -247 -191 l-88 -4 0 -119 0 -119 -85 0 -85 0 0 345 0 345 158 0 c119 0
170 -4 205 -16z m-895 -766 c3 -15 -4 -18 -33 -18 -25 0 -35 -4 -33 -12 3 -7
15 -13 29 -13 14 0 25 -7 27 -17 3 -14 -3 -18 -28 -18 -42 0 -35 -24 8 -28 20
-2 32 -9 32 -18 0 -10 -14 -14 -55 -14 l-55 0 0 73 c0 41 3 77 7 81 4 4 28 6
53 4 33 -2 46 -7 48 -20z m120 6 c17 -12 22 -25 22 -63 0 -61 -22 -84 -77 -79
l-38 3 -3 64 c-2 35 -1 70 2 77 7 19 66 18 94 -2z m82 -43 c0 -41 4 -60 14
-64 22 -9 26 2 26 65 0 51 2 58 20 58 18 0 20 -7 20 -62 0 -69 -17 -98 -57
-98 -40 0 -63 33 -63 93 0 56 4 67 27 67 9 0 13 -16 13 -59z m208 31 c6 -9 12
-19 12 -24 0 -12 -34 -10 -47 3 -18 18 -33 1 -33 -36 0 -37 15 -54 33 -36 12
12 47 15 47 4 0 -17 -36 -43 -58 -43 -40 0 -62 27 -62 75 0 42 14 69 40 78 21
7 53 -2 68 -21z m121 -27 c35 -93 36 -105 12 -105 -12 0 -21 5 -21 10 0 6 -11
10 -25 10 -14 0 -25 -4 -25 -10 0 -5 -11 -10 -25 -10 l-24 0 25 68 c14 37 27
73 29 80 10 28 35 9 54 -43z m159 37 c2 -7 -5 -16 -17 -19 -18 -5 -21 -13 -21
-64 0 -52 -2 -59 -20 -59 -18 0 -20 7 -20 60 0 53 -2 60 -20 60 -13 0 -20 7
-20 20 0 19 5 21 57 18 36 -2 58 -8 61 -16z m52 -62 c0 -73 -2 -80 -20 -80
-18 0 -20 7 -20 73 0 76 4 87 27 87 10 0 13 -20 13 -80z m121 61 c20 -16 24
-28 23 -67 -1 -51 -20 -74 -60 -74 -36 0 -54 26 -54 80 0 39 4 52 22 64 29 21
41 20 69 -3z m105 -19 l23 -33 3 33 c2 22 9 34 21 36 15 3 17 -6 17 -77 0 -71
-2 -81 -18 -81 -10 0 -27 16 -40 38 l-22 37 0 -37 c0 -31 -4 -38 -20 -38 -18
0 -20 7 -20 81 0 71 2 80 17 77 10 -2 27 -18 39 -36z"/>
<path d="M410 915 l0 -197 61 4 c48 4 66 9 80 27 23 28 33 114 26 220 -8 107
-25 129 -110 138 l-57 6 0 -198z"/>
<path d="M1040 1041 l0 -71 63 0 c73 0 97 17 97 67 0 45 -30 66 -100 71 l-60
4 0 -71z"/>
<path d="M406 418 c2 -59 28 -59 32 0 3 35 0 42 -15 42 -15 0 -18 -8 -17 -42z"/>
<path d="M1152 418 c2 -24 8 -43 13 -43 6 0 11 19 13 43 3 33 0 42 -13 42 -13
0 -16 -9 -13 -42z"/>
<path d="M1760 1065 l0 -195 113 0 c134 0 162 12 198 86 47 99 24 232 -50 281
-30 21 -46 23 -147 23 l-114 0 0 -195z m209 120 c33 -17 41 -39 41 -118 0 -63
-19 -110 -49 -127 -11 -5 -42 -10 -70 -10 l-51 0 0 135 0 135 50 0 c28 0 64
-7 79 -15z"/>
<path d="M2160 1065 l0 -195 40 0 40 0 0 70 0 70 60 0 c111 0 160 38 160 123
0 58 -19 99 -55 115 -15 7 -72 12 -135 12 l-110 0 0 -195z m201 125 c22 -12
27 -78 7 -98 -7 -7 -38 -12 -70 -12 l-58 0 0 53 c0 30 3 57 7 60 10 11 92 8
114 -3z"/>
<path d="M2680 1065 l0 -195 145 0 145 0 0 35 0 35 -105 0 -105 0 0 50 0 50
96 0 95 0 -3 33 -3 32 -95 3 -95 3 3 39 4 40 99 0 99 0 0 35 0 35 -140 0 -140
0 0 -195z"/>
<path d="M3220 1193 l0 -66 -21 19 c-26 24 -87 24 -123 0 -37 -24 -56 -73 -56
-143 0 -71 26 -118 76 -139 40 -17 82 -8 116 23 17 15 18 15 18 0 0 -13 9 -17
35 -17 l35 0 0 195 0 195 -40 0 -40 0 0 -67z m-21 -107 c35 -42 30 -135 -9
-156 -53 -28 -95 7 -95 80 0 33 6 54 19 69 22 24 68 28 85 7z"/>
<path d="M4500 1225 c0 -33 2 -35 35 -35 33 0 35 2 35 35 0 33 -2 35 -35 35
-33 0 -35 -2 -35 -35z"/>
<path d="M4330 1197 c0 -30 -4 -40 -20 -44 -13 -3 -20 -14 -20 -29 0 -17 6
-24 20 -24 19 0 20 -7 20 -104 0 -110 5 -122 50 -126 58 -5 70 -1 70 24 0 18
-6 25 -22 28 -22 3 -23 8 -26 91 l-3 87 26 0 c20 0 25 5 25 24 0 18 -6 25 -22
28 -19 2 -24 11 -28 43 -5 37 -7 40 -37 40 -32 0 -33 -2 -33 -38z"/>
<path d="M3783 1163 c-34 -7 -81 -59 -89 -99 -10 -54 1 -133 23 -162 48 -66
164 -62 210 7 32 48 30 61 -11 61 -25 0 -38 -6 -50 -25 -37 -57 -100 -16 -100
65 0 81 63 122 100 65 12 -19 25 -25 51 -25 35 0 35 1 29 32 -8 42 -31 66 -75
78 -37 10 -49 11 -88 3z"/>
<path d="M4073 1159 c-33 -10 -73 -51 -73 -75 0 -22 63 -17 83 6 20 24 59 26
77 5 21 -25 4 -43 -47 -51 -86 -12 -123 -42 -123 -99 0 -39 18 -65 54 -80 35
-15 67 -11 105 14 18 12 26 12 29 3 2 -6 20 -12 40 -12 l37 0 -6 117 c-3 65
-9 125 -13 134 -15 34 -106 56 -163 38z m97 -179 c0 -55 -59 -90 -93 -55 -26
25 -9 53 42 69 25 8 47 14 49 15 1 1 2 -12 2 -29z"/>
<path d="M4727 1160 c-40 -12 -58 -29 -78 -75 -24 -51 -23 -99 0 -152 44 -96
197 -106 253 -16 45 75 20 201 -47 231 -37 17 -96 23 -128 12z m99 -81 c13
-15 19 -36 19 -69 0 -57 -24 -90 -67 -90 -44 0 -68 31 -68 90 0 37 5 55 20 70
26 26 72 26 96 -1z"/>
<path d="M5110 1159 c-14 -5 -31 -17 -37 -26 -12 -15 -13 -15 -13 5 0 18 -6
22 -35 22 l-35 0 0 -145 0 -145 35 0 35 0 0 93 c0 106 13 137 59 137 45 0 51
-15 51 -127 l0 -103 40 0 40 0 0 110 c0 127 -12 162 -61 179 -38 13 -46 13
-79 0z"/>
<path d="M3361 1053 c0 -113 14 -162 49 -181 32 -16 96 -9 121 14 17 16 19 16
19 1 0 -13 9 -17 38 -17 l37 0 0 140 0 140 -37 0 -38 0 0 -93 c0 -106 -13
-137 -59 -137 -45 0 -51 15 -51 127 l0 103 -40 0 -40 0 1 -97z"/>
<path d="M4500 1010 l0 -140 35 0 35 0 0 140 0 140 -35 0 -35 0 0 -140z"/>
<path d="M2520 739 c-68 -20 -114 -81 -126 -167 -23 -173 115 -291 256 -219
42 21 70 55 85 105 6 20 3 22 -32 22 -32 -1 -41 -6 -58 -33 -29 -46 -67 -56
-113 -32 -28 16 -39 30 -49 65 -17 58 -7 123 24 161 20 24 32 29 69 29 37 0
47 -5 66 -30 18 -24 29 -30 61 -30 35 0 38 2 32 23 -24 82 -125 132 -215 106z"/>
<path d="M1760 540 l0 -200 40 0 40 0 0 200 0 200 -40 0 -40 0 0 -200z"/>
<path d="M1890 705 l0 -35 60 0 60 0 0 -166 0 -165 38 3 37 3 3 163 2 162 61
0 60 0 -3 33 -3 32 -157 3 -158 3 0 -36z"/>
<path d="M2844 631 c-24 -11 -54 -48 -54 -68 0 -18 65 -17 80 2 16 20 79 20
86 0 10 -25 -13 -42 -65 -48 -58 -7 -85 -22 -100 -54 -18 -40 -13 -73 18 -104
35 -35 72 -37 119 -9 39 24 42 24 42 5 0 -11 11 -15 41 -15 35 0 40 2 33 18
-4 9 -9 67 -12 129 -5 136 -12 146 -105 150 -34 2 -72 -1 -83 -6z m116 -178
c0 -35 -27 -63 -61 -63 -35 0 -54 29 -36 54 11 15 49 29 90 35 4 1 7 -11 7
-26z"/>
<path d="M3100 489 l0 -150 36 3 35 3 2 103 c2 90 5 106 21 118 25 18 41 18
60 -2 13 -12 16 -38 16 -120 l0 -105 38 3 37 3 3 105 c2 84 6 107 19 118 22
16 38 15 57 -4 13 -12 16 -38 16 -120 l0 -105 38 3 37 3 0 123 c0 123 0 124
-28 148 -37 31 -98 33 -128 3 l-21 -21 -22 21 c-29 27 -85 28 -120 0 l-26 -20
0 20 c0 17 -6 21 -35 21 l-35 0 0 -151z"/>
<path d="M3686 619 c-21 -17 -26 -18 -26 -5 0 12 -10 16 -35 16 l-35 0 0 -201
0 -200 38 3 37 3 3 68 c3 67 3 67 25 52 49 -35 133 -9 161 49 20 42 21 125 2
171 -26 61 -117 86 -170 44z m90 -64 c19 -30 22 -92 5 -123 -16 -29 -55 -38
-85 -19 -39 26 -44 108 -8 150 23 26 68 22 88 -8z"/>
<path d="M4289 612 c-26 -23 -33 -37 -33 -65 0 -56 15 -67 132 -97 31 -8 42
-16 42 -30 0 -37 -93 -39 -104 -2 -4 12 -16 17 -41 17 -30 0 -35 -3 -35 -23 0
-53 85 -91 170 -77 67 11 109 81 81 134 -10 19 -59 42 -129 61 -32 8 -42 16
-40 28 5 25 72 29 90 5 18 -24 78 -25 78 -1 0 9 -11 29 -24 44 -20 24 -32 28
-88 32 -61 4 -67 2 -99 -26z"/>
<path d="M3920 538 c0 -109 12 -162 43 -183 28 -19 91 -19 121 0 21 14 24 14
30 0 4 -11 16 -15 38 -13 18 2 32 6 31 11 -2 4 -3 68 -3 142 l0 135 -35 0 -35
0 0 -93 c0 -106 -13 -137 -59 -137 -45 0 -51 15 -51 127 l0 103 -40 0 -40 0 0
-92z"/>
</g>
</svg>
