<?xml version="1.0" standalone="no"?>
<!DOCTYPE svg PUBLIC "-//W3C//DTD SVG 20010904//EN"
 "http://www.w3.org/TR/2001/REC-SVG-20010904/DTD/svg10.dtd">
<svg version="1.0" xmlns="http://www.w3.org/2000/svg"
 width="454.000000pt" height="451.000000pt" viewBox="0 0 454.000000 451.000000"
 preserveAspectRatio="xMidYMid meet">

<g transform="translate(0.000000,451.000000) scale(0.100000,-0.100000)"
fill="#000000" stroke="none">
<path d="M1100 2914 c-229 -49 -413 -242 -449 -472 -15 -97 -31 -92 277 -92
195 0 271 3 280 12 17 17 17 539 0 556 -15 15 -25 14 -108 -4z"/>
<path d="M1335 2916 c-13 -9 -15 -50 -13 -286 l3 -275 276 -3 c228 -2 278 0
288 12 17 21 -13 155 -54 241 -74 152 -220 268 -380 303 -85 18 -104 20 -120
8z"/>
<path d="M1792 2258 c-182 -28 -349 -150 -427 -313 -42 -86 -57 -147 -53 -205
l3 -45 280 0 280 0 3 277 c3 317 7 301 -86 286z"/>
<path d="M668 2253 c-25 -6 -26 -48 -6 -138 35 -157 152 -302 303 -378 72 -36
157 -59 207 -55 l43 3 3 275 c2 250 1 276 -15 288 -12 9 -81 12 -267 11 -138
-1 -259 -3 -268 -6z"/>
<path d="M2060 1945 l0 -225 105 0 105 0 0 30 0 30 -75 0 -75 0 0 75 0 75 50
0 c49 0 50 1 50 30 0 29 -1 30 -50 30 l-50 0 0 65 0 65 65 0 c63 0 65 1 65 25
0 25 0 25 -95 25 l-95 0 0 -225z"/>
<path d="M2340 1939 l0 -222 98 5 c117 6 168 28 209 90 22 33 28 55 31 114 5
92 -9 135 -60 178 -47 40 -106 56 -208 56 l-70 0 0 -221z m199 153 c51 -25 72
-60 78 -128 9 -111 -54 -184 -159 -184 l-48 0 0 165 0 165 48 0 c26 0 62 -8
81 -18z"/>
<path d="M2762 1988 c3 -190 11 -218 68 -252 40 -23 127 -21 167 4 58 35 67
66 71 253 l4 167 -30 0 -30 0 -4 -157 c-3 -102 -9 -168 -18 -186 -17 -35 -72
-53 -113 -38 -46 18 -57 61 -57 231 l0 150 -31 0 -31 0 4 -172z"/>
<path d="M3160 1940 l0 -220 30 0 30 0 0 85 0 85 35 0 c33 0 36 -3 75 -80 42
-84 52 -94 93 -88 24 3 24 3 -25 90 l-50 88 30 25 c59 50 66 139 14 187 -34
32 -89 48 -169 48 l-63 0 0 -220z m157 160 c46 -16 64 -65 42 -113 -14 -31
-48 -47 -99 -47 l-40 0 0 85 0 85 34 0 c18 0 47 -5 63 -10z"/>
<path d="M3673 2138 c-6 -13 -54 -112 -107 -220 l-95 -198 35 0 c32 0 36 4 54
45 l19 45 105 0 104 0 18 -45 c15 -41 20 -45 50 -45 19 0 34 3 34 7 0 5 -198
423 -205 431 -1 1 -7 -8 -12 -20z m15 -266 c-39 -2 -72 -1 -74 1 -2 2 12 39
32 83 l37 79 37 -80 37 -80 -69 -3z"/>
</g>
</svg>
