<?xml version="1.0" encoding="UTF-8"?>
<svg version="1.1" xmlns="http://www.w3.org/2000/svg" width="496" height="494">
<path d="M0 0 C1.77664603 1.77664603 1.14611181 4.36831487 1.16113281 6.77319336 C1.17074036 8.00794907 1.1803479 9.24270477 1.19024658 10.51487732 C1.19509368 11.8731976 1.19937273 13.23152001 1.203125 14.58984375 C1.20887374 15.97367863 1.2146315 17.35751346 1.22039795 18.74134827 C1.2309159 21.6458473 1.23675346 24.55031858 1.24023438 27.45483398 C1.24572328 31.18210262 1.26975588 34.90900669 1.29820633 38.63616085 C1.31680167 41.49541811 1.32203661 44.35458698 1.32357025 47.21389961 C1.32660398 48.58827268 1.33465668 49.96264394 1.34775543 51.33695793 C1.36475055 53.2570363 1.36110039 55.17726417 1.35644531 57.09741211 C1.36191376 58.73836098 1.36191376 58.73836098 1.36749268 60.41246033 C1.24622009 61.26634842 1.12494751 62.12023651 1 63 C-2.40022241 65.26681494 -3.61012708 65.25648076 -7.60131836 65.2746582 C-9.32341774 65.28895622 -9.32341774 65.28895622 -11.08030701 65.30354309 C-12.32095413 65.30263168 -13.56160126 65.30172028 -14.83984375 65.30078125 C-16.75030235 65.30720894 -16.75030235 65.30720894 -18.69935608 65.31376648 C-21.39533242 65.3195147 -24.09092651 65.32093958 -26.78686523 65.31567383 C-30.23816142 65.3098805 -33.68892071 65.32680731 -37.14012814 65.3500185 C-40.4358627 65.3683113 -43.73156755 65.36457025 -47.02734375 65.36328125 C-48.26596664 65.372491 -49.50458954 65.38170074 -50.78074646 65.39118958 C-51.93196487 65.38496078 -53.08318329 65.37873199 -54.26928711 65.37231445 C-55.78793617 65.37325859 -55.78793617 65.37325859 -57.33726501 65.3742218 C-60.41438235 64.94176254 -61.7971918 64.16559935 -64 62 C-65.7688607 50.1053143 -59.68535584 36.27062036 -52.875 26.8125 C-51.60403032 25.19188606 -50.31299492 23.58675701 -49 22 C-48.37222656 21.16726563 -47.74445313 20.33453125 -47.09765625 19.4765625 C-37.42073391 8.05166723 -15.53234769 -4.59688967 0 0 Z " fill="#A237DA" transform="translate(203,245)"/>
<path d="M0 0 C16.6719905 0.17366657 31.00703656 8.83210578 42.4375 20.375 C52.61611948 31.24185353 58.49416617 44.69767056 59.6953125 59.56640625 C59.4375 62.375 59.4375 62.375 58.27819824 64.02726746 C55.70491097 65.91139106 53.90107614 65.74924864 50.72851562 65.74731445 C49.55720093 65.75354324 48.38588623 65.75977203 47.17907715 65.76618958 C45.28059021 65.75237495 45.28059021 65.75237495 43.34375 65.73828125 C42.04554321 65.73877975 40.74733643 65.73927826 39.40979004 65.73979187 C36.66256082 65.73970219 33.91562531 65.72928138 31.16845703 65.71118164 C27.64764328 65.68849428 24.12725863 65.68795067 20.60639191 65.69469929 C17.24796232 65.69884487 13.88966481 65.68686672 10.53125 65.67578125 C8.63276306 65.67714836 8.63276306 65.67714836 6.69592285 65.67854309 C5.52460815 65.66901108 4.35329346 65.65947906 3.14648438 65.6496582 C2.11406616 65.64505081 1.08164795 65.64044342 0.01794434 65.63569641 C-2.5625 65.375 -2.5625 65.375 -5.5625 63.375 C-5.92999268 60.78746033 -5.92999268 60.78746033 -5.91894531 57.47241211 C-5.92194641 56.23450424 -5.92494751 54.99659637 -5.92803955 53.72117615 C-5.91603475 52.36489447 -5.9035518 51.00861695 -5.890625 49.65234375 C-5.88756826 48.2675446 -5.88569149 46.88274239 -5.88494873 45.49794006 C-5.88034332 42.59510543 -5.86590755 39.69254787 -5.84375 36.78979492 C-5.81544097 33.06145485 -5.80453624 29.33333293 -5.8000679 25.60489559 C-5.79591938 22.74566956 -5.78610713 19.88648801 -5.77419281 17.02728462 C-5.76848004 15.65210897 -5.76372468 14.27692902 -5.75992584 12.90174675 C-5.75308199 10.98386968 -5.73855532 9.06602459 -5.72363281 7.14819336 C-5.71339081 5.50843788 -5.71339081 5.50843788 -5.70294189 3.83555603 C-5.46581039 -0.31901155 -3.77366396 0.14622245 0 0 Z " fill="#A237DA" transform="translate(146.5625,171.625)"/>
<path d="M0 0 C2 2 2 2 2.24723816 4.58753967 C2.24581314 5.68150558 2.24438812 6.7754715 2.24291992 7.90258789 C2.24753487 9.75944969 2.24753487 9.75944969 2.25224304 11.65382385 C2.24534583 13.0101032 2.2380789 14.36638071 2.23046875 15.72265625 C2.22927703 17.10745704 2.22882377 18.49225865 2.2290802 19.87705994 C2.22751518 22.77982642 2.21922339 25.68246961 2.20581055 28.58520508 C2.18880479 32.31353857 2.18499664 36.04173668 2.18575573 39.77010441 C2.18548437 42.62932131 2.18000887 45.48850837 2.17275429 48.34771538 C2.16956343 49.72289237 2.16759924 51.09807275 2.16686058 52.47325325 C2.16470235 54.39111668 2.15517294 56.3089676 2.14526367 58.22680664 C2.14145187 59.31997696 2.13764008 60.41314728 2.13371277 61.53944397 C2 64 2 64 1 65 C-0.92201894 65.10970365 -2.84808372 65.14910847 -4.77319336 65.16113281 C-6.00794907 65.17074036 -7.24270477 65.1803479 -8.51487732 65.19024658 C-9.8731976 65.19509368 -11.23152001 65.19937273 -12.58984375 65.203125 C-13.97367863 65.20887374 -15.35751346 65.2146315 -16.74134827 65.22039795 C-19.6458473 65.2309159 -22.55031858 65.23675346 -25.45483398 65.24023438 C-29.18210262 65.24572328 -32.90900669 65.26975588 -36.63616085 65.29820633 C-39.49541811 65.31680167 -42.35458698 65.32203661 -45.21389961 65.32357025 C-46.58827268 65.32660398 -47.96264394 65.33465668 -49.33695793 65.34775543 C-51.2570363 65.36475055 -53.17726417 65.36110039 -55.09741211 65.35644531 C-56.19137802 65.36009094 -57.28534393 65.36373657 -58.41246033 65.36749268 C-59.26634842 65.24622009 -60.12023651 65.12494751 -61 65 C-64.19416458 60.20875313 -62.88341509 55.51484864 -62 50 C-57.83387567 32.40718148 -47.13914691 18.57900571 -32.12109375 8.90625 C-22.64787052 3.12035145 -11.25824138 -0.84721932 0 0 Z " fill="#A237DA" transform="translate(129,171)"/>
<path d="M0 0 C1.64547318 0.00666183 1.64547318 0.00666183 3.32418823 0.01345825 C4.56532379 0.01360931 5.80645935 0.01376038 7.08520508 0.01391602 C8.4446529 0.02413003 9.8040991 0.03456204 11.1635437 0.04519653 C12.55073849 0.04892619 13.93793591 0.05177339 15.32513428 0.05377197 C18.97813171 0.0614122 22.63097037 0.08106388 26.28390503 0.10317993 C30.01068982 0.12363007 33.73750024 0.1327719 37.46432495 0.14285278 C44.77819945 0.16430953 52.09194309 0.19845001 59.4057312 0.24050903 C60.7498603 2.92876723 60.54771304 5.02539445 60.56686401 8.03543091 C60.57647156 9.25009033 60.5860791 10.46474976 60.59597778 11.71621704 C60.60022766 13.0339209 60.60447754 14.35162476 60.6088562 15.70925903 C60.61460683 17.06924441 60.62036457 18.42922977 60.62612915 19.78921509 C60.63663616 22.64065937 60.64248124 25.49207546 60.64596558 28.34353638 C60.65145951 32.0023977 60.67550739 35.66088859 60.70393753 39.31963348 C60.72253082 42.12827659 60.72776765 44.93682971 60.72930145 47.74552917 C60.73381178 49.75199683 60.75247105 51.75841638 60.77127075 53.76480103 C60.76826965 54.97946045 60.76526855 56.19411987 60.76217651 57.44558716 C60.76764496 59.05536438 60.76764496 59.05536438 60.77322388 60.69766235 C60.65195129 61.53680176 60.53067871 62.37594116 60.4057312 63.24050903 C55.88788213 66.25240841 52.29536157 64.84235834 47.1010437 63.99441528 C30.19301631 60.54489172 16.37472788 51.19710438 6.4057312 37.24050903 C-0.2346779 26.8229865 -5.20853974 14.81258766 -4.5942688 2.24050903 C-2.5942688 0.24050903 -2.5942688 0.24050903 0 0 Z " fill="#A237DA" transform="translate(70.59426879882813,245.75949096679688)"/>
<path d="M0 0 C26.92592593 0 26.92592593 0 34.4375 7.375 C39.18408962 13.08172598 39.45062883 19.61929199 39.3046875 26.74609375 C38.55439341 34.75884991 35.15414517 39.4966135 29.09765625 44.58984375 C19.74439745 50.87760246 12.80657167 48 0 48 C0 32.16 0 16.32 0 0 Z M9 6 C7.48677423 9.02645155 7.99546382 12.10771861 8.12109375 15.4140625 C8.14470474 16.14370209 8.16831573 16.87334167 8.19264221 17.62509155 C8.26929754 19.95859139 8.35331343 22.29176089 8.4375 24.625 C8.49071885 26.20571293 8.54345926 27.78644205 8.59570312 29.3671875 C8.72491513 33.24500138 8.86072959 37.12253486 9 41 C10.76229465 40.87367806 12.52389911 40.7377025 14.28515625 40.59765625 C15.26621338 40.52297119 16.24727051 40.44828613 17.25805664 40.37133789 C21.1408733 39.84549298 23.16677006 38.6950236 26 36 C30.10442895 30.42878453 30.92289851 24.77931618 30 18 C28.20832407 12.72450977 25.45819126 10.12073388 21 7 C17.06194814 5.68731605 13.12636553 5.91909087 9 6 Z " fill="#A336DA" transform="translate(253,255)"/>
<path d="M0 0 C23.53125 0 23.53125 0 29.3125 5 C32.32753101 8.57337009 32.33616538 12.17420843 32.28515625 16.6484375 C31.72237097 21.2894887 29.54439746 24.7768823 25.859375 27.6953125 C25.24578125 28.12585938 24.6321875 28.55640625 24 29 C24.30292969 29.50450684 24.60585938 30.00901367 24.91796875 30.52880859 C26.28318269 32.80819079 27.64165783 35.09151668 29 37.375 C29.71542969 38.56609375 29.71542969 38.56609375 30.4453125 39.78125 C30.89648438 40.54179687 31.34765625 41.30234375 31.8125 42.0859375 C32.23144531 42.7876709 32.65039062 43.4894043 33.08203125 44.21240234 C34 46 34 46 34 48 C30.7 48 27.4 48 24 48 C23.12988281 46.17662109 23.12988281 46.17662109 22.2421875 44.31640625 C21.45427395 42.73119924 20.66514786 41.1465945 19.875 39.5625 C19.49601562 38.76005859 19.11703125 37.95761719 18.7265625 37.13085938 C18.33984375 36.36708984 17.953125 35.60332031 17.5546875 34.81640625 C17.03624268 33.75595093 17.03624268 33.75595093 16.50732422 32.67407227 C14.69198132 30.30832348 14.69198132 30.30832348 9 30 C9 35.94 9 41.88 9 48 C6.03 48 3.06 48 0 48 C0 32.16 0 16.32 0 0 Z M9 6 C9 11.94 9 17.88 9 24 C15.65427663 23.84911309 15.65427663 23.84911309 21.5625 21.3125 C23.37338966 18.39932968 23.929866 16.4365659 24 13 C22.70712783 9.8396458 21.70354765 8.41040279 18.75 6.6875 C15.34060627 5.71704177 15.34060627 5.71704177 9 6 Z " fill="#9744C4" transform="translate(342,255)"/>
<path d="M0 0 C2.97 0 5.94 0 9 0 C9.01458252 0.93271729 9.02916504 1.86543457 9.04418945 2.82641602 C9.10553899 6.31380095 9.17974401 9.80043451 9.26245117 13.28735352 C9.29553909 14.79148187 9.32362045 16.29572958 9.34643555 17.80004883 C9.38028166 19.97268144 9.4326062 22.14423613 9.48828125 24.31640625 C9.51446533 25.62037354 9.54064941 26.92434082 9.56762695 28.26782227 C10.05981349 32.51630086 11.04603478 35.21933933 13 39 C16.01868434 40.50934217 18.67297229 40.17510672 22 40 C25.24849977 38.27773504 25.24849977 38.27773504 26 35 C26.15346953 32.34393699 26.25717898 29.70904905 26.31640625 27.05078125 C26.33718735 26.27816452 26.35796844 25.50554779 26.37937927 24.70951843 C26.44471038 22.2439352 26.50368315 19.77824639 26.5625 17.3125 C26.60570087 15.63996309 26.64931566 13.96743681 26.69335938 12.29492188 C26.8003749 8.1967225 26.90168857 4.09841704 27 0 C29.97 0 32.94 0 36 0 C36.07463717 4.83801979 36.12883014 9.67569804 36.16479492 14.51416016 C36.17980136 16.15712326 36.20021312 17.80004686 36.22631836 19.44287109 C36.26306359 21.81618042 36.27980772 24.18895625 36.29296875 26.5625 C36.30845261 27.28679199 36.32393646 28.01108398 36.33988953 28.75732422 C36.34171838 34.40807156 35.47294794 40.19241071 31.61857605 44.56835938 C26.62891842 48.95859658 22.01728715 49.37362118 15.6015625 49.26953125 C11.44497253 48.83889355 8.23092433 47.67875712 5 45 C0.46449424 38.70287751 -0.12790215 32.1034385 -0.09765625 24.51171875 C-0.0962413 23.80852005 -0.09482635 23.10532135 -0.09336853 22.3808136 C-0.08780109 20.14966456 -0.07525475 17.91861836 -0.0625 15.6875 C-0.05748079 14.16862125 -0.05291862 12.64974091 -0.04882812 11.13085938 C-0.03784236 7.42053988 -0.02060034 3.71027999 0 0 Z " fill="#9F40D2" transform="translate(298,255)"/>
<path d="M0 0 C0.99 0 1.98 0 3 0 C3.39155273 0.82854492 3.39155273 0.82854492 3.79101562 1.67382812 C8.5284725 11.68803206 13.29874894 21.67745309 18.29296875 31.56640625 C21.0164536 36.97961375 23.53916062 42.4631114 26 48 C22.7 48 19.4 48 16 48 C12 41.25 12 41.25 12 39 C1.605 39.495 1.605 39.495 -9 40 C-10.32 42.64 -11.64 45.28 -13 48 C-16.3 48 -19.6 48 -23 48 C-16.81948273 33.89094037 -10.15562333 20.07553847 -3.18579102 6.33984375 C-2.11661417 4.2301071 -1.05554251 2.11658422 0 0 Z M1 16 C-0.16897285 18.47810316 -1.33527544 20.95740119 -2.5 23.4375 C-2.83386719 24.14455078 -3.16773438 24.85160156 -3.51171875 25.58007812 C-5.2357643 28.66686221 -5.2357643 28.66686221 -6 32 C-1.38 32 3.24 32 8 32 C7.16583712 27.82918558 6.21232487 24.96469139 4.4375 21.1875 C3.98246094 20.21167969 3.52742188 19.23585938 3.05859375 18.23046875 C2.70925781 17.49441406 2.35992187 16.75835937 2 16 C1.67 16 1.34 16 1 16 Z " fill="#A03CD4" transform="translate(400,255)"/>
<path d="M0 0 C7.26 0 14.52 0 22 0 C22 1.98 22 3.96 22 6 C17.38 6 12.76 6 8 6 C8 10.29 8 14.58 8 19 C11.96 19 15.92 19 20 19 C20 21.31 20 23.62 20 26 C16.04 26 12.08 26 8 26 C8 30.95 8 35.9 8 41 C13.61 41 19.22 41 25 41 C25 43.31 25 45.62 25 48 C16.75 48 8.5 48 0 48 C0 32.16 0 16.32 0 0 Z " fill="#9C40CD" transform="translate(222,255)"/>
<path d="M0 0 C26.85185185 0 26.85185185 0 34.5 7.375 C36.90883078 10.45590788 37.80662062 13.03572269 38 17 C37.505 16.01 37.505 16.01 37 15 C36.34 15 35.68 15 35 15 C35 14.01 35 13.02 35 12 C34.01 12 33.02 12 32 12 C32.33 10.68 32.66 9.36 33 8 C32.38511719 8.16757812 31.77023437 8.33515625 31.13671875 8.5078125 C30.32847656 8.71148437 29.52023437 8.91515625 28.6875 9.125 C27.88699219 9.33382813 27.08648437 9.54265625 26.26171875 9.7578125 C24 10 24 10 21 8 C16.66929802 6.76265658 12.46617275 6.92430216 8 7 C8.33 6.01 8.66 5.02 9 4 C10.65 4 12.3 4 14 4 C13.67 3.34 13.34 2.68 13 2 C9.37 2 5.74 2 2 2 C2.33 16.52 2.66 31.04 3 46 C10.92 45.67 18.84 45.34 27 45 C25 47 25 47 22 48 C14.74 48 7.48 48 0 48 C0 32.16 0 16.32 0 0 Z " fill="#9646C1" transform="translate(253,255)"/>
<path d="M0 0 C-0.33 1.32 -0.66 2.64 -1 4 C-0.01 4 0.98 4 2 4 C2 4.99 2 5.98 2 7 C2.66 7 3.32 7 4 7 C4 7.66 4 8.32 4 9 C4.66 9 5.32 9 6 9 C6.50524532 18.08038109 6.5104716 25.69744559 0.3984375 32.8828125 C-1.00821144 34.31612777 -2.49713489 35.66791502 -4 37 C-4.66 36.67 -5.32 36.34 -6 36 C-5.67 35.34 -5.34 34.68 -5 34 C-4.34 34 -3.68 34 -3 34 C-3.66 32.35 -4.32 30.7 -5 29 C-5.33 29.66 -5.66 30.32 -6 31 C-7.98248715 31.71706982 -9.98415349 32.38290413 -12 33 C-12.99 33.495 -12.99 33.495 -14 34 C-15.70702735 34.06996014 -17.41668003 34.08440154 -19.125 34.0625 C-20.03507812 34.05347656 -20.94515625 34.04445313 -21.8828125 34.03515625 C-22.58148438 34.02355469 -23.28015625 34.01195312 -24 34 C-24 33.67 -24 33.34 -24 33 C-23.11957031 32.84144531 -22.23914063 32.68289063 -21.33203125 32.51953125 C-12.43257159 30.93833949 -12.43257159 30.93833949 -6 25 C-3.26336333 20.43893888 -3.4373508 15.16313384 -4 10 C-5.30719263 6.63121229 -5.30719263 6.63121229 -7 4 C-7.33 3.01 -7.66 2.02 -8 1 C-5.23735711 0.40267181 -2.83967231 0 0 0 Z " fill="#A338DA" transform="translate(286,263)"/>
<path d="M0 0 C1.63001953 0.01353516 1.63001953 0.01353516 3.29296875 0.02734375 C4.12441406 0.03894531 4.95585937 0.05054688 5.8125 0.0625 C6.4725 1.7125 7.1325 3.3625 7.8125 5.0625 C6.87277344 5.04509766 6.87277344 5.04509766 5.9140625 5.02734375 C4.68816406 5.01380859 4.68816406 5.01380859 3.4375 5 C2.21933594 4.98259766 2.21933594 4.98259766 0.9765625 4.96484375 C-1.23687142 4.91783666 -1.23687142 4.91783666 -3.1875 6.0625 C-3.5435862 8.67857756 -3.5435862 8.67857756 -3.625 11.75 C-3.94169316 16.67047338 -4.54402874 19.92489281 -7.1875 24.0625 C-6.548125 24.18625 -5.90875 24.31 -5.25 24.4375 C-4.2290625 24.746875 -4.2290625 24.746875 -3.1875 25.0625 C-2.8575 25.7225 -2.5275 26.3825 -2.1875 27.0625 C-2.5175 28.0525 -2.8475 29.0425 -3.1875 30.0625 C-3.33153348 31.39613703 -3.43340423 32.73468046 -3.50390625 34.07421875 C-3.54580078 34.83154297 -3.58769531 35.58886719 -3.63085938 36.36914062 C-3.67017578 37.15482422 -3.70949219 37.94050781 -3.75 38.75 C-3.79318359 39.54728516 -3.83636719 40.34457031 -3.88085938 41.16601562 C-3.98677368 43.13131447 -4.08762551 45.09688496 -4.1875 47.0625 C-8.0625 46.1875 -8.0625 46.1875 -9.1875 45.0625 C-9.2802833 43.68089885 -9.30497043 42.29461962 -9.30102539 40.90991211 C-9.30091209 39.58865578 -9.30091209 39.58865578 -9.30079651 38.2407074 C-9.29305458 36.80477989 -9.29305458 36.80477989 -9.28515625 35.33984375 C-9.2837413 34.36463272 -9.28232635 33.38942169 -9.28086853 32.38465881 C-9.27525133 29.25640857 -9.26269593 26.12822877 -9.25 23 C-9.24498722 20.88476666 -9.24042393 18.76953219 -9.23632812 16.65429688 C-9.22527631 11.45700704 -9.20852146 6.25975855 -9.1875 1.0625 C-5.90230525 -0.03256492 -3.45086585 -0.03710608 0 0 Z " fill="#A237DA" transform="translate(353.1875,254.9375)"/>
<path d="M0 0 C2.31 0 4.62 0 7 0 C7.12391876 4.75047352 7.21448561 9.49999961 7.2746582 14.25170898 C7.29974959 15.86678461 7.33383126 17.48174726 7.37719727 19.09643555 C7.43809286 21.42264706 7.46626124 23.74735359 7.48828125 26.07421875 C7.51408768 26.79212082 7.5398941 27.51002289 7.56648254 28.24967957 C7.56867603 32.20114024 7.16732898 33.80033626 4.59448242 36.87036133 C3.31021362 37.92453247 3.31021362 37.92453247 2 39 C1.34 39.66 0.68 40.32 0 41 C-0.66 40.01 -1.32 39.02 -2 38 C-1.67 37.01 -1.34 36.02 -1 35 C-0.84653047 32.34393699 -0.74282102 29.70904905 -0.68359375 27.05078125 C-0.66281265 26.27816452 -0.64203156 25.50554779 -0.62062073 24.70951843 C-0.55528962 22.2439352 -0.49631685 19.77824639 -0.4375 17.3125 C-0.39429913 15.63996309 -0.35068434 13.96743681 -0.30664062 12.29492188 C-0.1996251 8.1967225 -0.09831143 4.09841704 0 0 Z " fill="#A33BD9" transform="translate(326,256)"/>
<path d="M0 0 C2 2 2 2 2.24723816 4.58753967 C2.24581314 5.68150558 2.24438812 6.7754715 2.24291992 7.90258789 C2.24753487 9.75944969 2.24753487 9.75944969 2.25224304 11.65382385 C2.24534583 13.0101032 2.2380789 14.36638071 2.23046875 15.72265625 C2.22927703 17.10745704 2.22882377 18.49225865 2.2290802 19.87705994 C2.22751518 22.77982642 2.21922339 25.68246961 2.20581055 28.58520508 C2.18880479 32.31353857 2.18499664 36.04173668 2.18575573 39.77010441 C2.18548437 42.62932131 2.18000887 45.48850837 2.17275429 48.34771538 C2.16956343 49.72289237 2.16759924 51.09807275 2.16686058 52.47325325 C2.16470235 54.39111668 2.15517294 56.3089676 2.14526367 58.22680664 C2.14145187 59.31997696 2.13764008 60.41314728 2.13371277 61.53944397 C2 64 2 64 1 65 C-0.92201894 65.10970365 -2.84808372 65.14910847 -4.77319336 65.16113281 C-6.00794907 65.17074036 -7.24270477 65.1803479 -8.51487732 65.19024658 C-9.8731976 65.19509368 -11.23152001 65.19937273 -12.58984375 65.203125 C-13.97367863 65.20887374 -15.35751346 65.2146315 -16.74134827 65.22039795 C-19.6458473 65.2309159 -22.55031858 65.23675346 -25.45483398 65.24023438 C-29.18210262 65.24572328 -32.90900669 65.26975588 -36.63616085 65.29820633 C-39.49541811 65.31680167 -42.35458698 65.32203661 -45.21389961 65.32357025 C-46.58827268 65.32660398 -47.96264394 65.33465668 -49.33695793 65.34775543 C-51.2570363 65.36475055 -53.17726417 65.36110039 -55.09741211 65.35644531 C-56.19137802 65.36009094 -57.28534393 65.36373657 -58.41246033 65.36749268 C-59.26634842 65.24622009 -60.12023651 65.12494751 -61 65 C-63.29013653 61.5647952 -63.17842973 60.014669 -63 56 C-62.34 56.33 -61.68 56.66 -61 57 C-61 58.98 -61 60.96 -61 63 C-30.805 63.495 -30.805 63.495 0 64 C-0.33 43.87 -0.66 23.74 -1 3 C-5.95 3 -10.9 3 -16 3 C-10.71594456 0.35797228 -5.89877023 -0.40218888 0 0 Z " fill="#9443BD" transform="translate(129,171)"/>
<path d="M0 0 C0.66 0.66 1.32 1.32 2 2 C1.01 3.485 1.01 3.485 0 5 C0.66 5 1.32 5 2 5 C3.14501953 6.52880859 3.14501953 6.52880859 4.3828125 8.6484375 C4.82753906 9.40640625 5.27226562 10.164375 5.73046875 10.9453125 C6.19066406 11.74710937 6.65085937 12.54890625 7.125 13.375 C7.59292969 14.1690625 8.06085938 14.963125 8.54296875 15.78125 C12 21.7277469 12 21.7277469 12 24 C8.7 24 5.4 24 2 24 C0.65359017 21.61072363 -0.67709053 19.2147427 -2 16.8125 C-2.3815625 16.13896484 -2.763125 15.46542969 -3.15625 14.77148438 C-5.1906511 11.04780378 -6.54323525 8.37134612 -6 4 C-7.98 4 -9.96 4 -12 4 C-12 3.34 -12 2.68 -12 2 C-7.84782943 0.41822074 -4.45263035 -0.40478458 0 0 Z " fill="#A13AD8" transform="translate(364,279)"/>
<path d="M0 0 C2.97 0 5.94 0 9 0 C9.07463717 4.83801979 9.12883014 9.67569804 9.16479492 14.51416016 C9.17980136 16.15712326 9.20021312 17.80004686 9.22631836 19.44287109 C9.26306359 21.81618042 9.27980772 24.18895625 9.29296875 26.5625 C9.30845261 27.28679199 9.32393646 28.01108398 9.33988953 28.75732422 C9.34171838 34.40807156 8.47294794 40.19241071 4.61857605 44.56835938 C0.21186916 48.44567721 -3.36583698 49.14453874 -9.0625 49.1875 C-9.91972656 49.20167969 -10.77695312 49.21585937 -11.66015625 49.23046875 C-14 49 -14 49 -17 47 C-12.71 47 -8.42 47 -4 47 C-3.67 45.68 -3.34 44.36 -3 43 C-3.99 43.66 -4.98 44.32 -6 45 C-6.99 45 -7.98 45 -9 45 C-9 44.01 -9 43.02 -9 42 C-11.31 41.67 -13.62 41.34 -16 41 C-15.67 40.01 -15.34 39.02 -15 38 C-14.01 38.66 -13.02 39.32 -12 40 C-6.66531571 40.38464895 -6.66531571 40.38464895 -2 38 C-0.77681134 34.33043403 -0.76883876 30.87678997 -0.68359375 27.05078125 C-0.66281265 26.27816452 -0.64203156 25.50554779 -0.62062073 24.70951843 C-0.55528962 22.2439352 -0.49631685 19.77824639 -0.4375 17.3125 C-0.39429913 15.63996309 -0.35068434 13.96743681 -0.30664062 12.29492188 C-0.1996251 8.1967225 -0.09831143 4.09841704 0 0 Z M1 1 C0.8570662 6.21442281 0.71466343 11.42885976 0.57275391 16.64331055 C0.52439759 18.41740308 0.47589588 20.19149166 0.42724609 21.96557617 C0.35736525 24.51480094 0.28800639 27.06403945 0.21875 29.61328125 C0.19687622 30.40712723 0.17500244 31.20097321 0.15246582 32.01887512 C0.07150104 35.01365561 0 38.00396466 0 41 C0.66 41.33 1.32 41.66 2 42 C2.2475 41.401875 2.495 40.80375 2.75 40.1875 C4 38 4 38 6.05371094 36.84643555 C8.36398683 35.04284814 8.36398683 35.04284814 8.45410156 31.53833008 C8.45346973 30.11523997 8.43095335 28.69204996 8.390625 27.26953125 C8.38496521 26.51911057 8.37930542 25.76868988 8.37347412 24.99552917 C8.35109668 22.60053496 8.30090171 20.20704131 8.25 17.8125 C8.22993659 16.18817266 8.21168553 14.56382185 8.1953125 12.93945312 C8.15122794 8.95905793 8.08219427 4.97978329 8 1 C5.69 1 3.38 1 1 1 Z " fill="#9949C0" transform="translate(325,255)"/>
<path d="M0 0 C1.64547318 0.00666183 1.64547318 0.00666183 3.32418823 0.01345825 C4.56532379 0.01360931 5.80645935 0.01376038 7.08520508 0.01391602 C8.4446529 0.02413003 9.8040991 0.03456204 11.1635437 0.04519653 C12.55073849 0.04892619 13.93793591 0.05177339 15.32513428 0.05377197 C18.97813171 0.0614122 22.63097037 0.08106388 26.28390503 0.10317993 C30.01068982 0.12363007 33.73750024 0.1327719 37.46432495 0.14285278 C44.77819945 0.16430953 52.09194309 0.19845001 59.4057312 0.24050903 C60.75717774 2.94340211 60.52548285 5.0412071 60.51925659 8.06716919 C60.5191433 9.8988414 60.5191433 9.8988414 60.51902771 11.76751709 C60.51392072 13.10486898 60.50870472 14.44222046 60.50338745 15.77957153 C60.5015226 17.14434762 60.50009901 18.50912437 60.49909973 19.87390137 C60.49527983 23.46765996 60.48545403 27.06137821 60.47439575 30.65512085 C60.46417031 34.32159886 60.45959968 37.98808338 60.45455933 41.65457153 C60.4438313 48.84990244 60.42676119 56.04520008 60.4057312 63.24050903 C60.0757312 63.24050903 59.7457312 63.24050903 59.4057312 63.24050903 C59.0757312 42.78050903 58.7457312 22.32050903 58.4057312 1.24050903 C38.2757312 1.57050903 18.1457312 1.90050903 -2.5942688 2.24050903 C-2.5942688 2.90050903 -2.5942688 3.56050903 -2.5942688 4.24050903 C-1.9342688 4.24050903 -1.2742688 4.24050903 -0.5942688 4.24050903 C-0.39875542 5.84371877 -0.21314897 7.44813889 -0.0317688 9.05300903 C0.07264526 9.94632935 0.17705933 10.83964966 0.28463745 11.76004028 C0.4057312 14.24050903 0.4057312 14.24050903 -0.5942688 17.24050903 C-0.28374194 19.54387528 -0.28374194 19.54387528 0.3432312 21.92800903 C0.63520386 23.14037231 0.63520386 23.14037231 0.93307495 24.37722778 C1.08905151 24.9921106 1.24502808 25.60699341 1.4057312 26.24050903 C-1.38925604 23.44552179 -1.81677264 20.22082649 -2.7192688 16.49050903 C-2.90102661 15.78668091 -3.08278442 15.08285278 -3.27005005 14.35769653 C-4.28303548 10.2600562 -4.98882845 6.49157105 -4.5942688 2.24050903 C-2.5942688 0.24050903 -2.5942688 0.24050903 0 0 Z " fill="#9341BD" transform="translate(70.59426879882813,245.75949096679688)"/>
<path d="M0 0 C1.65 0 3.3 0 5 0 C4.95875 0.86625 4.9175 1.7325 4.875 2.625 C4.86101364 6.51937009 4.86101364 6.51937009 7 12 C12.28 12.33 17.56 12.66 23 13 C23 14.65 23 16.3 23 18 C19.35418313 18.02887512 15.70839537 18.04675585 12.0625 18.0625 C10.50112305 18.07506836 10.50112305 18.07506836 8.90820312 18.08789062 C7.91884766 18.09111328 6.92949219 18.09433594 5.91015625 18.09765625 C4.53549194 18.10551147 4.53549194 18.10551147 3.13305664 18.11352539 C1 18 1 18 0 17 C-0.07325168 14.13732433 -0.09238205 11.299281 -0.0625 8.4375 C-0.05798828 7.63119141 -0.05347656 6.82488281 -0.04882812 5.99414062 C-0.03700518 3.99606244 -0.01906914 1.99802217 0 0 Z " fill="#A238D8" transform="translate(223,284)"/>
<path d="M0 0 C3.1763469 3.51309427 4.12713882 7.37774832 5.1875 11.875 C5.36474609 12.56980469 5.54199219 13.26460937 5.72460938 13.98046875 C6.7124789 18.03111523 7.47033662 21.80972831 7 26 C5.8380127 27.64421082 5.8380127 27.64421082 4 29 C1.41955566 29.3742218 1.41955566 29.3742218 -1.70898438 29.37231445 C-2.88029907 29.37854324 -4.05161377 29.38477203 -5.25842285 29.39118958 C-6.52408081 29.38197983 -7.78973877 29.37277008 -9.09375 29.36328125 C-10.39195679 29.36377975 -11.69016357 29.36427826 -13.02770996 29.36479187 C-15.77493918 29.36470219 -18.52187469 29.35428138 -21.26904297 29.33618164 C-24.78985672 29.31349428 -28.31024137 29.31295067 -31.83110809 29.31969929 C-35.18953768 29.32384487 -38.54783519 29.31186672 -41.90625 29.30078125 C-43.80473694 29.30214836 -43.80473694 29.30214836 -45.74157715 29.30354309 C-47.49854919 29.28924507 -47.49854919 29.28924507 -49.29101562 29.2746582 C-50.32343384 29.27005081 -51.35585205 29.26544342 -52.41955566 29.26069641 C-55 29 -55 29 -58 27 C-57.67 26.34 -57.34 25.68 -57 25 C-56.34 25.33 -55.68 25.66 -55 26 C-53.12155092 26.11982257 -51.23899169 26.17729161 -49.35693359 26.20532227 C-47.58532364 26.2352401 -47.58532364 26.2352401 -45.77792358 26.26576233 C-44.49769318 26.28247482 -43.21746277 26.29918732 -41.8984375 26.31640625 C-40.59170074 26.33718735 -39.28496399 26.35796844 -37.93862915 26.37937927 C-34.463311 26.43459294 -30.98793347 26.48400525 -27.51251221 26.53222656 C-23.966621 26.58244677 -20.4208161 26.63813012 -16.875 26.69335938 C-9.9167415 26.80093228 -2.95840504 26.90237917 4 27 C3.91218733 24.47765681 3.80521993 21.9584835 3.6875 19.4375 C3.65366211 18.38079102 3.65366211 18.38079102 3.61914062 17.30273438 C3.43140278 13.59917874 2.9987387 10.61695043 1.45703125 7.22265625 C0 4 0 4 0 0 Z " fill="#9348BA" transform="translate(199,208)"/>
<path d="M0 0 C0 0.66 0 1.32 0 2 C-1.65 2.33 -3.3 2.66 -5 3 C-5 14.88 -5 26.76 -5 39 C-5.66 39 -6.32 39 -7 39 C-7.33 30.42 -7.66 21.84 -8 13 C-9.32 13 -10.64 13 -12 13 C-12 8.71 -12 4.42 -12 0 C-3.375 -1.125 -3.375 -1.125 0 0 Z " fill="#A14AD0" transform="translate(267,257)"/>
<path d="M0 0 C0 0.33 0 0.66 0 1 C6.93 1.33 13.86 1.66 21 2 C21 2.33 21 2.66 21 3 C10.605 3.495 10.605 3.495 0 4 C-1.32 6.64 -2.64 9.28 -4 12 C-7.3 12 -10.6 12 -14 12 C-10.06906499 1.5986764 -10.06906499 1.5986764 -5.875 -0.75 C-3 -1 -3 -1 0 0 Z " fill="#993DCA" transform="translate(391,291)"/>
<path d="M0 0 C0.33 0 0.66 0 1 0 C1.50524532 9.08038109 1.5104716 16.69744559 -4.6015625 23.8828125 C-6.00821144 25.31612777 -7.49713489 26.66791502 -9 28 C-9.66 27.67 -10.32 27.34 -11 27 C-10.67 26.34 -10.34 25.68 -10 25 C-9.34 25 -8.68 25 -8 25 C-8.66 23.35 -9.32 21.7 -10 20 C-10.33 20.66 -10.66 21.32 -11 22 C-12.98248715 22.71706982 -14.98415349 23.38290413 -17 24 C-17.66 24.33 -18.32 24.66 -19 25 C-20.70702735 25.06996014 -22.41668003 25.08440154 -24.125 25.0625 C-25.03507812 25.05347656 -25.94515625 25.04445313 -26.8828125 25.03515625 C-27.93082031 25.01775391 -27.93082031 25.01775391 -29 25 C-29 24.67 -29 24.34 -29 24 C-28.11957031 23.82984375 -27.23914063 23.6596875 -26.33203125 23.484375 C-25.17058594 23.24203125 -24.00914062 22.9996875 -22.8125 22.75 C-21.66394531 22.51796875 -20.51539063 22.2859375 -19.33203125 22.046875 C-15.76202523 20.92523184 -13.83922754 19.3725052 -11 17 C-7.6875 16.75 -7.6875 16.75 -5 17 C-5 14.69 -5 12.38 -5 10 C-2.525 10.495 -2.525 10.495 0 11 C0 7.37 0 3.74 0 0 Z " fill="#9941C9" transform="translate(291,272)"/>
<path d="M0 0 C0.99 0 1.98 0 3 0 C3 0.66 3 1.32 3 2 C3.99 2.33 4.98 2.66 6 3 C8.46052825 7.27354906 8.23554568 11.21057126 8 16 C7.67 16.66 7.34 17.32 7 18 C6.34 18 5.68 18 5 18 C5 18.66 5 19.32 5 20 C3.35 20 1.7 20 0 20 C0.08378906 19.31292969 0.16757812 18.62585938 0.25390625 17.91796875 C0.35574219 17.01691406 0.45757812 16.11585938 0.5625 15.1875 C0.66691406 14.29417969 0.77132813 13.40085937 0.87890625 12.48046875 C1.15658709 9.86624428 1.15658709 9.86624428 0 7 C-0.03954234 4.66700175 -0.04401732 2.33291811 0 0 Z " fill="#A137D9" transform="translate(364,258)"/>
<path d="M0 0 C0.66 0.33 1.32 0.66 2 1 C1.26418258 2.1549921 0.51069961 3.29874185 -0.25 4.4375 C-0.66765625 5.07558594 -1.0853125 5.71367187 -1.515625 6.37109375 C-3.30324077 8.33276684 -4.45417412 8.4637729 -7 9 C-9.58333229 11.24958334 -9.58333229 11.24958334 -12 14 C-13.11375 15.175625 -13.11375 15.175625 -14.25 16.375 C-16.39201832 19.58802747 -16.70109866 22.18900788 -17 26 C-15.68 26.33 -14.36 26.66 -13 27 C-13.66 28.32 -14.32 29.64 -15 31 C-15.66 30.34 -16.32 29.68 -17 29 C-20.27773504 29.75150023 -20.27773504 29.75150023 -22 33 C-22.66 33 -23.32 33 -24 33 C-23.48297453 23.17651602 -15.42240847 13.93157239 -9 7 C-6.11399015 4.49101165 -3.13341767 2.19049106 0 0 Z " fill="#9D3ECB" transform="translate(167,255)"/>
<path d="M0 0 C1.65 0 3.3 0 5 0 C4.01 0.33 3.02 0.66 2 1 C2.03029297 1.75917725 2.06058594 2.51835449 2.09179688 3.30053711 C2.65193374 17.5377081 3.18320686 31.75057784 3 46 C2.34 46 1.68 46 1 46 C-0.1650499 43.6699002 -0.1209358 42.32752923 -0.11352539 39.73388672 C-0.11344986 38.85312469 -0.11337433 37.97236267 -0.11329651 37.06491089 C-0.10813522 36.11278717 -0.10297394 35.16066345 -0.09765625 34.1796875 C-0.0962413 33.20589142 -0.09482635 32.23209534 -0.09336853 31.22879028 C-0.08775973 28.11082927 -0.07520573 24.9929394 -0.0625 21.875 C-0.05748613 19.76432395 -0.05292303 17.65364678 -0.04882812 15.54296875 C-0.03778745 10.36195479 -0.02104073 5.18098248 0 0 Z " fill="#9E4ECA" transform="translate(342,255)"/>
<path d="M0 0 C1 4 1 4 1 17 C21.13 17 41.26 17 62 17 C59.36734564 19.63265436 58.18460037 19.25796932 54.51220703 19.2746582 C53.36406525 19.28419022 52.21592346 19.29372223 51.0329895 19.30354309 C49.78718109 19.30263168 48.54137268 19.30172028 47.2578125 19.30078125 C45.98275848 19.30506638 44.70770447 19.3093515 43.39401245 19.31376648 C40.69206034 19.31951953 37.99048899 19.32093418 35.28857422 19.31567383 C31.82940237 19.3098862 28.37076718 19.32678956 24.91168404 19.3500185 C21.61039752 19.36831532 18.3091406 19.36457003 15.0078125 19.36328125 C13.14517258 19.37709587 13.14517258 19.37709587 11.24490356 19.39118958 C9.51323441 19.38184639 9.51323441 19.38184639 7.74658203 19.37231445 C6.22340866 19.37325859 6.22340866 19.37325859 4.66946411 19.3742218 C1.58016381 18.9411448 0.18785682 18.20426847 -2 16 C-2.20703125 12.96875 -2.20703125 12.96875 -1.8125 9.5 C-1.69519531 8.3553125 -1.57789063 7.210625 -1.45703125 6.03125 C-1 3 -1 3 0 0 Z " fill="#944CBC" transform="translate(141,291)"/>
<path d="M0 0 C1.65 0.33 3.3 0.66 5 1 C5 1.99 5 2.98 5 4 C7.31 4.33 9.62 4.66 12 5 C12 5.99 12 6.98 12 8 C13.98 7.34 15.96 6.68 18 6 C17.67 7.32 17.34 8.64 17 10 C15.58456585 10.19658808 14.16755969 10.38187546 12.75 10.5625 C11.96109375 10.66691406 11.1721875 10.77132813 10.359375 10.87890625 C7.99467126 11.00027349 6.2488963 10.69633257 4 10 C4 9.01 4 8.02 4 7 C3.360625 6.896875 2.72125 6.79375 2.0625 6.6875 C1.381875 6.460625 0.70125 6.23375 0 6 C-0.33 5.01 -0.66 4.02 -1 3 C-0.34 3 0.32 3 1 3 C0.67 2.01 0.34 1.02 0 0 Z " fill="#A236DA" transform="translate(304,292)"/>
<path d="M0 0 C0.66 0.66 1.32 1.32 2 2 C1.71202981 3.34386088 1.36784131 4.6757713 1 6 C0.83651514 9.84189423 1.11961428 13.25836069 2 17 C1.34 17 0.68 17 0 17 C-0.26554687 16.36191406 -0.53109375 15.72382813 -0.8046875 15.06640625 C-1.15789062 14.24011719 -1.51109375 13.41382813 -1.875 12.5625 C-2.22304688 11.73878906 -2.57109375 10.91507812 -2.9296875 10.06640625 C-3.8244937 7.84253285 -3.8244937 7.84253285 -6 7 C-6 6.01 -6 5.02 -6 4 C-7.98 4 -9.96 4 -12 4 C-12 3.34 -12 2.68 -12 2 C-7.84782943 0.41822074 -4.45263035 -0.40478458 0 0 Z " fill="#A337DB" transform="translate(364,279)"/>
<path d="M0 0 C0.99 0.33 1.98 0.66 3 1 C3.33 1.99 3.66 2.98 4 4 C3.67 4.66 3.34 5.32 3 6 C2.01 6 1.02 6 0 6 C-1.11609176 9.02507202 -1.11609176 9.02507202 -1.4375 12.4375 C-1.91928541 15.48880759 -2.43789959 17.39649931 -4 20 C-5.65 19.67 -7.3 19.34 -9 19 C-7 14 -5 9 -3 4 C-2.34 4 -1.68 4 -1 4 C-0.67 2.68 -0.34 1.36 0 0 Z " fill="#A337DB" transform="translate(399,262)"/>
<path d="M0 0 C2.36525651 1.05122511 4.1663375 2.14012126 6.15625 3.81640625 C9.53314607 6.40938002 13.01738044 8.28458492 16.8125 10.1875 C17.48603516 10.54263672 18.15957031 10.89777344 18.85351562 11.26367188 C23.64132082 13.67819181 27.66891596 14.51322335 33 15 C33.495 15.495 33.495 15.495 34 16 C35.68183948 16.23287008 37.3712416 16.41264166 39.0625 16.5625 C39.98160156 16.64628906 40.90070313 16.73007812 41.84765625 16.81640625 C42.91306641 16.90728516 42.91306641 16.90728516 44 17 C43.34 17.66 42.68 18.32 42 19 C28.50290488 18.52255174 13.07695603 13.72211068 3.1328125 4.21484375 C1.75 2.5625 1.75 2.5625 0 0 Z " fill="#9348BD" transform="translate(86,292)"/>
<path d="M0 0 C2.48627517 3.0622744 4.09989404 6.1457054 5.6875 9.75 C6.12449219 10.73484375 6.56148438 11.7196875 7.01171875 12.734375 C7.33785156 13.48203125 7.66398437 14.2296875 8 15 C4.7 15 1.4 15 -2 15 C-2.66 13.35 -3.32 11.7 -4 10 C-2.8553125 10.495 -2.8553125 10.495 -1.6875 11 C0.99069135 12.17436686 0.99069135 12.17436686 4 12 C2.27773504 8.75150023 2.27773504 8.75150023 -1 8 C-0.67 5.36 -0.34 2.72 0 0 Z " fill="#9844C3" transform="translate(418,288)"/>
<path d="M0 0 C3.96 0 7.92 0 12 0 C12 2.31 12 4.62 12 7 C8.04 7 4.08 7 0 7 C0 6.34 0 5.68 0 5 C1.98 5 3.96 5 6 5 C6 3.68 6 2.36 6 1 C4.02 1.33 2.04 1.66 0 2 C0 1.34 0 0.68 0 0 Z " fill="#9842C5" transform="translate(230,274)"/>
<path d="M0 0 C0 0.66 0 1.32 0 2 C-0.969375 2.268125 -1.93875 2.53625 -2.9375 2.8125 C-3.948125 3.204375 -4.95875 3.59625 -6 4 C-6.33 4.99 -6.66 5.98 -7 7 C-8.65 7.33 -10.3 7.66 -12 8 C-12 5.36 -12 2.72 -12 0 C-10.56359829 -0.19573608 -9.12580496 -0.38127816 -7.6875 -0.5625 C-6.88699219 -0.66691406 -6.08648437 -0.77132813 -5.26171875 -0.87890625 C-3 -1 -3 -1 0 0 Z " fill="#A236DC" transform="translate(267,257)"/>
<path d="M0 0 C2 3 2 3 2 5 C2.99 5.33 3.98 5.66 5 6 C4.67 5.01 4.34 4.02 4 3 C5.32 3 6.64 3 8 3 C7.34 4.98 6.68 6.96 6 9 C2.7 9 -0.6 9 -4 9 C-2.68 6.03 -1.36 3.06 0 0 Z " fill="#9841C8" transform="translate(381,294)"/>
<path d="M0 0 C0.66 0.33 1.32 0.66 2 1 C1.26418258 2.1549921 0.51069961 3.29874185 -0.25 4.4375 C-0.66765625 5.07558594 -1.0853125 5.71367187 -1.515625 6.37109375 C-3.30166335 8.33103583 -4.45323939 8.47655513 -7 9 C-11.35527382 12.78221148 -14.64069169 17.34776203 -18 22 C-18.33 21.34 -18.66 20.68 -19 20 C-13.2879902 12.44434439 -7.25128676 6.08105028 0 0 Z " fill="#9448C0" transform="translate(167,255)"/>
<path d="M0 0 C3.1763469 3.51309427 4.12713882 7.37774832 5.1875 11.875 C5.36474609 12.56980469 5.54199219 13.26460937 5.72460938 13.98046875 C6.71512583 18.04196866 7.38316418 21.79147545 7 26 C5 28 5 28 1.875 28.125 C0.451875 28.063125 0.451875 28.063125 -1 28 C-1 27.67 -1 27.34 -1 27 C0.65 27 2.3 27 4 27 C3.91218733 24.47765681 3.80521993 21.9584835 3.6875 19.4375 C3.66494141 18.73302734 3.64238281 18.02855469 3.61914062 17.30273438 C3.43140278 13.59917874 2.9987387 10.61695043 1.45703125 7.22265625 C0 4 0 4 0 0 Z " fill="#9345C1" transform="translate(199,208)"/>
<path d="M0 0 C2 2 2 2 2.23046875 3.875 C2.20919922 4.926875 2.20919922 4.926875 2.1875 6 C2.17783203 7.051875 2.17783203 7.051875 2.16796875 8.125 C2 10 2 10 1 12 C0.34 12 -0.32 12 -1 12 C-1 12.66 -1 13.32 -1 14 C-2.65 14 -4.3 14 -6 14 C-6 13.34 -6 12.68 -6 12 C-5.34 11.67 -4.68 11.34 -4 11 C-3.27306096 9.02111039 -2.60183749 7.02045442 -2 5 C-1.67 5 -1.34 5 -1 5 C-0.67 3.35 -0.34 1.7 0 0 Z " fill="#A437DE" transform="translate(370,264)"/>
<path d="M0 0 C0.66 0 1.32 0 2 0 C2 0.66 2 1.32 2 2 C2.99 2 3.98 2 5 2 C5.66 3.65 6.32 5.3 7 7 C6.01 7.33 5.02 7.66 4 8 C3.01 9.485 3.01 9.485 2 11 C1.67 10.01 1.34 9.02 1 8 C0.01 7.34 -0.98 6.68 -2 6 C-1.49396008 3.83125748 -1.00016187 2.00032373 0 0 Z " fill="#A33BD7" transform="translate(407,271)"/>
<path d="M0 0 C1.65322266 0.01740234 1.65322266 0.01740234 3.33984375 0.03515625 C4.99693359 0.04869141 4.99693359 0.04869141 6.6875 0.0625 C7.54214844 0.07410156 8.39679688 0.08570313 9.27734375 0.09765625 C9.60734375 1.74765625 9.93734375 3.39765625 10.27734375 5.09765625 C8.29734375 5.42765625 6.31734375 5.75765625 4.27734375 6.09765625 C4.27734375 5.10765625 4.27734375 4.11765625 4.27734375 3.09765625 C3.32859375 3.13890625 2.37984375 3.18015625 1.40234375 3.22265625 C-1.72265625 3.09765625 -1.72265625 3.09765625 -3.72265625 1.09765625 C-2.72265625 0.09765625 -2.72265625 0.09765625 0 0 Z " fill="#A735DC" transform="translate(271.72265625,256.90234375)"/>
<path d="M0 0 C-0.33 1.32 -0.66 2.64 -1 4 C-0.01 4 0.98 4 2 4 C1.67 5.98 1.34 7.96 1 10 C-1 8.6875 -1 8.6875 -3 7 C-3 6.01 -3 5.02 -3 4 C-4.65 3.67 -6.3 3.34 -8 3 C-8 2.34 -8 1.68 -8 1 C-5.23735711 0.40267181 -2.83967231 0 0 0 Z " fill="#A338DB" transform="translate(286,263)"/>
<path d="M0 0 C1.32 0.33 2.64 0.66 4 1 C4.13277344 1.69867188 4.26554687 2.39734375 4.40234375 3.1171875 C4.57894531 4.02726562 4.75554687 4.93734375 4.9375 5.875 C5.19853516 7.23238281 5.19853516 7.23238281 5.46484375 8.6171875 C5.89963701 10.99956317 5.89963701 10.99956317 7 13 C5.58333333 19.61111111 5.58333333 19.61111111 2 22 C2.165 21.38125 2.33 20.7625 2.5 20.125 C3.69070152 12.68311551 3.50991195 6.72733124 0 0 Z " fill="#954BBD" transform="translate(279,266)"/>
<path d="M0 0 C0.99 0.495 0.99 0.495 2 1 C2.80835332 3.55830501 3.40779912 6.13909988 4.0234375 8.75 C4.34570312 9.4925 4.66796875 10.235 5 11 C7.02440832 11.89024337 7.02440832 11.89024337 9 12 C9 12.99 9 13.98 9 15 C6.18512995 14.37447332 4.46040765 13.65457317 2.77734375 11.26171875 C0.77935784 7.45910041 -0.54837256 4.38698048 0 0 Z " fill="#974AC3" transform="translate(299,287)"/>
<path d="M0 0 C0.99 0 1.98 0 3 0 C4.06775224 1.96466413 5.06553465 3.96855359 6 6 C5.67 6.66 5.34 7.32 5 8 C4.34 8 3.68 8 3 8 C2.67 6.02 2.34 4.04 2 2 C1.34 2 0.68 2 0 2 C-0.10957031 2.63808594 -0.21914063 3.27617187 -0.33203125 3.93359375 C-0.49058594 4.75988281 -0.64914062 5.58617187 -0.8125 6.4375 C-0.96332031 7.26121094 -1.11414063 8.08492188 -1.26953125 8.93359375 C-1.51058594 9.61550781 -1.75164062 10.29742187 -2 11 C-2.99 11.33 -3.98 11.66 -5 12 C-3.68938409 7.76570244 -2.05643741 3.92592596 0 0 Z " fill="#934AC0" transform="translate(400,255)"/>
<path d="M0 0 C4.13621084 3.3810038 7.81316569 6.66590534 11 11 C10.67 11.66 10.34 12.32 10 13 C8.5 11.625 8.5 11.625 7 10 C7 9.34 7 8.68 7 8 C5.35 7.67 3.7 7.34 2 7 C1.34 4.69 0.68 2.38 0 0 Z " fill="#9444C0" transform="translate(184,188)"/>
<path d="M0 0 C4.29 0 8.58 0 13 0 C13 1.32 13 2.64 13 4 C8.05 4.33 3.1 4.66 -2 5 C1.30243306 1.69756694 5.44971086 2.35002224 10 2 C6.7 1.67 3.4 1.34 0 1 C0 0.67 0 0.34 0 0 Z " fill="#9A3DCD" transform="translate(230,256)"/>
<path d="M0 0 C0.556875 0.7115625 0.556875 0.7115625 1.125 1.4375 C3.62646962 3.52205802 5.81593418 3.64621491 9 4 C9.33 3.01 9.66 2.02 10 1 C10.66 2.65 11.32 4.3 12 6 C8.7 6 5.4 6 2 6 C1.34 4.02 0.68 2.04 0 0 Z " fill="#934AB8" transform="translate(364,297)"/>
<path d="M0 0 C1.06528748 2.73019786 1.07998186 3.79298812 0.00390625 6.578125 C-0.47175781 7.45984375 -0.94742187 8.3415625 -1.4375 9.25 C-1.91058594 10.14203125 -2.38367188 11.0340625 -2.87109375 11.953125 C-3.24363281 12.62859375 -3.61617188 13.3040625 -4 14 C-4.66 14 -5.32 14 -6 14 C-4.50829734 9.0276578 -2.39542583 4.58154261 0 0 Z " fill="#974ABF" transform="translate(394,267)"/>
<path d="M0 0 C0.66 0.66 1.32 1.32 2 2 C0.02 6.29 -1.96 10.58 -4 15 C-5.12877356 10.48490576 -4.86072909 10.72145818 -3 7 C-2.83275263 3.83304044 -2.83275263 3.83304044 -3 1 C-2.01 0.67 -1.02 0.34 0 0 Z " fill="#9B4DC2" transform="translate(400,269)"/>
<path d="M0 0 C0.66 0 1.32 0 2 0 C2 0.66 2 1.32 2 2 C2.804375 2.268125 3.60875 2.53625 4.4375 2.8125 C5.7059375 3.4003125 5.7059375 3.4003125 7 4 C7.33 4.99 7.66 5.98 8 7 C7.34 7.66 6.68 8.32 6 9 C4.99406757 7.8803014 3.9954151 6.7540588 3 5.625 C2.443125 4.99851562 1.88625 4.37203125 1.3125 3.7265625 C0 2 0 2 0 0 Z " fill="#9543C4" transform="translate(77,281)"/>
<path d="M0 0 C0.66 0.33 1.32 0.66 2 1 C-0.55264392 3.97808457 -3.53181572 5.26590786 -7 7 C-7.33 7.66 -7.66 8.32 -8 9 C-8.99 8.67 -9.98 8.34 -11 8 C-9.5433323 6.85204994 -8.08461063 5.70670581 -6.625 4.5625 C-5.40683594 3.60537109 -5.40683594 3.60537109 -4.1640625 2.62890625 C-2 1 -2 1 0 0 Z " fill="#9649BF" transform="translate(100,178)"/>
<path d="M0 0 C1.98 0 3.96 0 6 0 C5.01 0.495 5.01 0.495 4 1 C4.33 2.32 4.66 3.64 5 5 C3.35 5 1.7 5 0 5 C0 3.35 0 1.7 0 0 Z " fill="#993DD0" transform="translate(394,287)"/>
<path d="M0 0 C2.475 0.495 2.475 0.495 5 1 C4.67 2.65 4.34 4.3 4 6 C2.68 5.67 1.36 5.34 0 5 C0 3.35 0 1.7 0 0 Z " fill="#A638DD" transform="translate(382,294)"/>
<path d="M0 0 C3 1 3 1 4.75 4.375 C6 8 6 8 5 11 C4.16151196 9.54462432 3.32936066 8.08559627 2.5 6.625 C1.80390625 5.40683594 1.80390625 5.40683594 1.09375 4.1640625 C0 2 0 2 0 0 Z " fill="#9C47C6" transform="translate(358,286)"/>
<path d="M0 0 C0.66 0 1.32 0 2 0 C3.20272819 2.40545638 3.10071472 3.94996953 3.0625 6.625 C3.05347656 7.44226563 3.04445313 8.25953125 3.03515625 9.1015625 C3.02355469 9.72804688 3.01195312 10.35453125 3 11 C2.01 11.33 1.02 11.66 0 12 C0.185625 10.7625 0.37125 9.525 0.5625 8.25 C0.94711223 5.23720423 1.0874594 2.89989173 0 0 Z " fill="#984CC0" transform="translate(364,264)"/>
<path d="M0 0 C0.99 0.33 1.98 0.66 3 1 C2.34 2.98 1.68 4.96 1 7 C-0.65 7 -2.3 7 -4 7 C-3.01 6.34 -2.02 5.68 -1 5 C-0.27034634 2.43717258 -0.27034634 2.43717258 0 0 Z " fill="#9345BB" transform="translate(386,296)"/>
<path d="M0 0 C2.74277578 3.19990508 4.6302836 6.00499382 6 10 C4.0625 9.25 4.0625 9.25 2 8 C1.375 5.9375 1.375 5.9375 1 4 C0.34 3.67 -0.32 3.34 -1 3 C-0.67 2.01 -0.34 1.02 0 0 Z " fill="#9747C2" transform="translate(365,284)"/>
<path d="M0 0 C-0.78375 0.268125 -1.5675 0.53625 -2.375 0.8125 C-5.28114923 1.84814432 -5.28114923 1.84814432 -7 5 C-8.32 4.01 -9.64 3.02 -11 2 C-3.57142857 -1.57142857 -3.57142857 -1.57142857 0 0 Z " fill="#9345C3" transform="translate(187,248)"/>
<path d="M0 0 C0.5534764 2.07553648 1 3.84365964 1 6 C0.01 6 -0.98 6 -2 6 C-2.33 7.32 -2.66 8.64 -3 10 C-4 7 -4 7 -3.22265625 5.17578125 C-2.1484375 3.45052083 -1.07421875 1.72526042 0 0 Z " fill="#9443C0" transform="translate(75,202)"/>
<path d="M0 0 C0.66 0 1.32 0 2 0 C1.3125 2.4375 1.3125 2.4375 0 5 C-2.625 5.8125 -2.625 5.8125 -5 6 C-3.38405168 3.95880212 -1.7143618 1.95927063 0 0 Z " fill="#9847C6" transform="translate(87,187)"/>
<path d="M0 0 C0.66 1.32 1.32 2.64 2 4 C0.1875 4.6875 0.1875 4.6875 -2 5 C-3.75 3.5625 -3.75 3.5625 -5 2 C-3.35 1.34 -1.7 0.68 0 0 Z " fill="#A437E2" transform="translate(420,296)"/>
</svg>
