<?xml version="1.0" standalone="no"?>
<!DOCTYPE svg PUBLIC "-//W3C//DTD SVG 20010904//EN"
 "http://www.w3.org/TR/2001/REC-SVG-20010904/DTD/svg10.dtd">
<svg version="1.0" xmlns="http://www.w3.org/2000/svg"
 width="256.000000pt" height="256.000000pt" viewBox="0 0 256.000000 256.000000"
 preserveAspectRatio="xMidYMid meet">

<g transform="translate(0.000000,256.000000) scale(0.100000,-0.100000)"
fill="#000000" stroke="none">
<path d="M1275 1806 c-11 -8 -65 -40 -120 -71 -55 -32 -94 -60 -88 -62 7 -3
59 23 116 56 57 34 110 61 117 61 7 0 60 -27 117 -60 96 -55 142 -75 118 -51
-9 9 -234 142 -238 140 -1 0 -11 -6 -22 -13z"/>
<path d="M1205 1714 c-49 -29 -91 -58 -93 -64 -6 -16 1 -13 91 40 47 28 90 50
96 50 7 0 48 -21 91 -46 44 -25 85 -44 92 -42 6 2 -32 30 -86 61 -53 31 -98
57 -99 56 -1 0 -42 -25 -92 -55z"/>
<path d="M971 1699 l-1 -36 166 -96 166 -95 161 93 162 94 1 38 c1 29 0 31 -3
8 -4 -27 -20 -39 -157 -117 -84 -49 -159 -88 -167 -88 -8 1 -81 40 -164 88
-129 76 -151 92 -156 117 -6 29 -7 29 -8 -6z"/>
<path d="M1216 1667 c-38 -22 -64 -43 -57 -45 6 -2 39 12 72 32 33 20 64 36
69 36 5 0 36 -16 69 -36 33 -20 66 -34 73 -32 14 5 -124 88 -144 87 -7 0 -44
-19 -82 -42z"/>
<path d="M1255 1639 c-16 -11 -37 -24 -45 -29 -8 -5 -12 -11 -9 -14 3 -4 27 5
52 19 l46 26 50 -26 c63 -31 68 -17 7 19 -52 31 -61 31 -101 5z"/>
<path d="M970 1621 c0 -5 75 -52 166 -104 l166 -95 156 90 c157 89 179 104
171 112 -2 2 -74 -36 -159 -85 -85 -49 -161 -89 -168 -89 -7 0 -75 35 -150 79
-177 101 -182 104 -182 92z"/>
<path d="M1267 1594 c-15 -8 -25 -19 -22 -24 4 -6 16 -3 30 6 18 12 28 13 44
5 33 -18 48 -12 21 9 -30 23 -37 24 -73 4z"/>
<path d="M972 1570 c2 -7 77 -56 166 -108 l163 -94 164 93 c90 52 165 100 165
108 0 11 -4 11 -22 -1 -13 -8 -87 -52 -165 -97 l-142 -82 -158 92 c-87 50
-162 94 -167 97 -5 2 -7 -1 -4 -8z"/>
<path d="M1290 1550 c0 -5 5 -10 10 -10 6 0 10 5 10 10 0 6 -4 10 -10 10 -5 0
-10 -4 -10 -10z"/>
<path d="M972 1519 c2 -8 77 -56 167 -108 l161 -93 163 92 c181 103 173 98
164 106 -3 3 -78 -35 -166 -86 l-161 -91 -132 77 c-73 42 -148 86 -167 97 -24
15 -32 16 -29 6z"/>
<path d="M972 1467 c4 -11 284 -180 319 -192 10 -3 80 31 175 86 180 104 169
97 161 105 -3 3 -78 -35 -166 -85 l-160 -92 -108 62 c-200 116 -225 129 -221
116z"/>
<path d="M970 1413 c0 -8 320 -193 332 -193 6 0 319 178 327 186 2 2 2 7 -1
10 -4 3 -65 -28 -136 -69 -71 -42 -144 -83 -161 -92 l-32 -16 -158 91 c-159
91 -171 96 -171 83z"/>
<path d="M1023 1313 c-18 -9 -33 -20 -33 -23 0 -4 15 -15 33 -25 31 -16 35
-16 65 -1 39 20 40 27 3 49 -34 20 -28 20 -68 0z m77 -25 c0 -5 -11 -13 -24
-19 -19 -9 -29 -8 -46 4 l-21 15 21 15 c17 12 28 13 46 5 13 -6 24 -15 24 -20z"/>
<path d="M460 1019 c0 -22 5 -32 20 -36 18 -5 20 -14 20 -105 0 -91 -2 -100
-20 -105 -14 -4 -20 -14 -20 -34 l0 -29 135 0 135 0 0 60 0 60 -34 0 c-30 0
-35 -3 -38 -27 -3 -25 -7 -28 -45 -31 l-43 -3 0 40 c0 40 1 41 36 41 34 0 35
1 32 33 -3 28 -7 32 -35 35 -29 3 -33 7 -33 33 0 28 2 29 45 29 41 0 45 -2 45
-25 0 -22 4 -25 35 -25 l35 0 0 60 0 60 -135 0 -135 0 0 -31z"/>
<path d="M780 1020 c0 -16 5 -30 10 -30 6 0 10 -43 10 -110 0 -67 -4 -110 -10
-110 -5 0 -10 -14 -10 -31 l0 -31 88 4 c107 5 150 27 181 92 27 55 26 101 -1
156 -33 64 -87 90 -190 90 l-78 0 0 -30z m154 -40 c72 -27 73 -165 1 -198 -53
-24 -55 -21 -55 98 0 119 1 121 54 100z"/>
<path d="M1110 1020 c0 -20 5 -30 15 -30 12 0 15 -16 15 -85 0 -102 16 -147
62 -175 66 -40 155 -13 184 55 8 20 14 67 14 115 0 62 3 82 15 86 9 4 15 19
15 36 l0 29 -67 -3 c-66 -3 -68 -4 -71 -30 -3 -23 1 -28 17 -28 20 0 21 -6 21
-89 0 -100 -10 -121 -60 -121 -45 0 -60 31 -60 123 0 60 3 79 15 83 9 4 15 19
15 35 l0 29 -65 0 -65 0 0 -30z"/>
<path d="M1480 1021 c0 -20 6 -30 20 -34 18 -5 20 -14 20 -107 0 -94 -2 -102
-21 -107 -15 -4 -19 -12 -17 -32 3 -25 6 -26 71 -29 l67 -3 0 29 c0 17 -6 32
-15 36 -20 7 -21 76 -1 76 47 0 65 -19 77 -80 l12 -60 48 0 49 0 0 35 c0 25
-4 35 -15 35 -9 0 -18 12 -21 30 -4 16 -13 35 -20 41 -11 9 -10 16 11 41 27
31 32 76 14 110 -18 34 -70 48 -179 48 l-100 0 0 -29z m191 -41 c21 -12 25
-40 7 -58 -7 -7 -29 -12 -50 -12 -38 0 -38 0 -38 40 0 38 2 40 31 40 17 0 39
-5 50 -10z"/>
<path d="M1890 914 c-25 -75 -51 -139 -57 -141 -7 -3 -13 -18 -13 -35 l0 -29
63 3 c59 3 62 4 65 29 2 19 -2 28 -17 32 -14 3 -18 11 -14 26 5 18 13 21 58
21 39 0 54 -4 59 -16 10 -25 7 -34 -9 -34 -10 0 -15 -10 -15 -30 l0 -30 65 0
c64 0 65 1 65 26 0 15 -7 32 -15 38 -8 6 -34 70 -58 141 l-44 130 -44 3 -45 3
-44 -137z m114 -11 c7 -20 4 -23 -23 -23 -35 0 -36 5 -19 63 l12 40 12 -29 c6
-16 15 -39 18 -51z"/>
</g>
</svg>
