<?xml version="1.0" encoding="UTF-8"?>
<svg version="1.1" xmlns="http://www.w3.org/2000/svg" width="169" height="166">
<path d="M0 0 C1.77664603 1.77664603 1.14611181 4.36831487 1.16113281 6.77319336 C1.17074036 8.00794907 1.1803479 9.24270477 1.19024658 10.51487732 C1.19509368 11.8731976 1.19937273 13.23152001 1.203125 14.58984375 C1.20887374 15.97367863 1.2146315 17.35751346 1.22039795 18.74134827 C1.2309159 21.6458473 1.23675346 24.55031858 1.24023438 27.45483398 C1.24572328 31.18210262 1.26975588 34.90900669 1.29820633 38.63616085 C1.31680167 41.49541811 1.32203661 44.35458698 1.32357025 47.21389961 C1.32660398 48.58827268 1.33465668 49.96264394 1.34775543 51.33695793 C1.36475055 53.2570363 1.36110039 55.17726417 1.35644531 57.09741211 C1.36191376 58.73836098 1.36191376 58.73836098 1.36749268 60.41246033 C1.24622009 61.26634842 1.12494751 62.12023651 1 63 C-2.40022241 65.26681494 -3.61012708 65.25648076 -7.60131836 65.2746582 C-9.32341774 65.28895622 -9.32341774 65.28895622 -11.08030701 65.30354309 C-12.32095413 65.30263168 -13.56160126 65.30172028 -14.83984375 65.30078125 C-16.75030235 65.30720894 -16.75030235 65.30720894 -18.69935608 65.31376648 C-21.39533242 65.3195147 -24.09092651 65.32093958 -26.78686523 65.31567383 C-30.23816142 65.3098805 -33.68892071 65.32680731 -37.14012814 65.3500185 C-40.4358627 65.3683113 -43.73156755 65.36457025 -47.02734375 65.36328125 C-48.26596664 65.372491 -49.50458954 65.38170074 -50.78074646 65.39118958 C-51.93196487 65.38496078 -53.08318329 65.37873199 -54.26928711 65.37231445 C-55.78793617 65.37325859 -55.78793617 65.37325859 -57.33726501 65.3742218 C-60.4121436 64.94207718 -61.79846357 64.16360366 -64 62 C-65.76405586 47.90960382 -57.47676516 32.76699963 -49.375 21.875 C-39.16368872 9.66792959 -17.0025949 -5.03201798 0 0 Z " fill="#A43BDA" transform="translate(154,86)"/>
<path d="M0 0 C16.98550242 0.24265003 31.25199154 8.38575439 42.875 20.3125 C53.14880588 31.39739581 58.73045282 45.07464941 60.12890625 60.02734375 C59.875 62.3125 59.875 62.3125 58.71594238 63.93205261 C56.14528643 65.85968236 54.36088768 65.68676224 51.16601562 65.68481445 C49.99470093 65.69104324 48.82338623 65.69727203 47.61657715 65.70368958 C45.71809021 65.68987495 45.71809021 65.68987495 43.78125 65.67578125 C42.48304321 65.67627975 41.18483643 65.67677826 39.84729004 65.67729187 C37.10006082 65.67720219 34.35312531 65.66678138 31.60595703 65.64868164 C28.08514328 65.62599428 24.56475863 65.62545067 21.04389191 65.63219929 C17.68546232 65.63634487 14.32716481 65.62436672 10.96875 65.61328125 C9.07026306 65.61464836 9.07026306 65.61464836 7.13342285 65.61604309 C5.96210815 65.60651108 4.79079346 65.59697906 3.58398438 65.5871582 C2.55156616 65.58255081 1.51914795 65.57794342 0.45544434 65.57319641 C-2.125 65.3125 -2.125 65.3125 -5.125 63.3125 C-5.49249268 60.72496033 -5.49249268 60.72496033 -5.48144531 57.40991211 C-5.48444641 56.17200424 -5.48744751 54.93409637 -5.49053955 53.65867615 C-5.47853475 52.30239447 -5.4660518 50.94611695 -5.453125 49.58984375 C-5.45006826 48.2050446 -5.44819149 46.82024239 -5.44744873 45.43544006 C-5.44284332 42.53260543 -5.42840755 39.63004787 -5.40625 36.72729492 C-5.37794097 32.99895485 -5.36703624 29.27083293 -5.3625679 25.54239559 C-5.35841938 22.68316956 -5.34860713 19.82398801 -5.33669281 16.96478462 C-5.33098004 15.58960897 -5.32622468 14.21442902 -5.32242584 12.83924675 C-5.31558199 10.92136968 -5.30105532 9.00352459 -5.28613281 7.08569336 C-5.27589081 5.44593788 -5.27589081 5.44593788 -5.26544189 3.77305603 C-5.03758502 -0.2190192 -3.6396989 0.11411597 0 0 Z " fill="#A43BDA" transform="translate(97.125,12.6875)"/>
<path d="M0 0 C2 2 2 2 2.24723816 4.58753967 C2.24581314 5.68150558 2.24438812 6.7754715 2.24291992 7.90258789 C2.24753487 9.75944969 2.24753487 9.75944969 2.25224304 11.65382385 C2.24534583 13.0101032 2.2380789 14.36638071 2.23046875 15.72265625 C2.22927703 17.10745704 2.22882377 18.49225865 2.2290802 19.87705994 C2.22751518 22.77982642 2.21922339 25.68246961 2.20581055 28.58520508 C2.18880479 32.31353857 2.18499664 36.04173668 2.18575573 39.77010441 C2.18548437 42.62932131 2.18000887 45.48850837 2.17275429 48.34771538 C2.16956343 49.72289237 2.16759924 51.09807275 2.16686058 52.47325325 C2.16470235 54.39111668 2.15517294 56.3089676 2.14526367 58.22680664 C2.14145187 59.31997696 2.13764008 60.41314728 2.13371277 61.53944397 C2 64 2 64 1 65 C-0.92201894 65.10970365 -2.84808372 65.14910847 -4.77319336 65.16113281 C-6.00794907 65.17074036 -7.24270477 65.1803479 -8.51487732 65.19024658 C-9.8731976 65.19509368 -11.23152001 65.19937273 -12.58984375 65.203125 C-13.97367863 65.20887374 -15.35751346 65.2146315 -16.74134827 65.22039795 C-19.6458473 65.2309159 -22.55031858 65.23675346 -25.45483398 65.24023438 C-29.18210262 65.24572328 -32.90900669 65.26975588 -36.63616085 65.29820633 C-39.49541811 65.31680167 -42.35458698 65.32203661 -45.21389961 65.32357025 C-46.58827268 65.32660398 -47.96264394 65.33465668 -49.33695793 65.34775543 C-51.2570363 65.36475055 -53.17726417 65.36110039 -55.09741211 65.35644531 C-56.19137802 65.36009094 -57.28534393 65.36373657 -58.41246033 65.36749268 C-59.26634842 65.24622009 -60.12023651 65.12494751 -61 65 C-64.2106227 60.18406595 -62.95805187 55.53541079 -62 50 C-56.93395876 31.08117378 -45.89133189 17.19974452 -29.1875 7.33984375 C-20.31857034 2.53977145 -10.20179307 -0.7349995 0 0 Z " fill="#A239D9" transform="translate(80,12)"/>
<path d="M0 0 C1.64547318 0.00666183 1.64547318 0.00666183 3.32418823 0.01345825 C4.56532379 0.01360931 5.80645935 0.01376038 7.08520508 0.01391602 C8.4446529 0.02413003 9.8040991 0.03456204 11.1635437 0.04519653 C12.55073849 0.04892619 13.93793591 0.05177339 15.32513428 0.05377197 C18.97813171 0.0614122 22.63097037 0.08106388 26.28390503 0.10317993 C30.01068982 0.12363007 33.73750024 0.1327719 37.46432495 0.14285278 C44.77819945 0.16430953 52.09194309 0.19845001 59.4057312 0.24050903 C60.7498603 2.92876723 60.54771304 5.02539445 60.56686401 8.03543091 C60.57647156 9.25009033 60.5860791 10.46474976 60.59597778 11.71621704 C60.60022766 13.0339209 60.60447754 14.35162476 60.6088562 15.70925903 C60.61460683 17.06924441 60.62036457 18.42922977 60.62612915 19.78921509 C60.63663616 22.64065937 60.64248124 25.49207546 60.64596558 28.34353638 C60.65145951 32.0023977 60.67550739 35.66088859 60.70393753 39.31963348 C60.72253082 42.12827659 60.72776765 44.93682971 60.72930145 47.74552917 C60.73381178 49.75199683 60.75247105 51.75841638 60.77127075 53.76480103 C60.76826965 54.97946045 60.76526855 56.19411987 60.76217651 57.44558716 C60.76764496 59.05536438 60.76764496 59.05536438 60.77322388 60.69766235 C60.65195129 61.53680176 60.53067871 62.37594116 60.4057312 63.24050903 C55.88788213 66.25240841 52.29536157 64.84235834 47.1010437 63.99441528 C31.02689645 60.71501738 16.77893357 51.87767298 7.16940308 38.52224731 C0.09270377 27.814399 -5.23234395 15.29978038 -4.5942688 2.24050903 C-2.5942688 0.24050903 -2.5942688 0.24050903 0 0 Z " fill="#A238D9" transform="translate(21.594268798828125,86.75949096679688)"/>
<path d="M0 0 C0.66 0.66 1.32 1.32 2 2 C1.625 4.125 1.625 4.125 1 6 C0.34 5.01 -0.32 4.02 -1 3 C-7.04676219 2.41858056 -11.59247512 3.69156257 -16.875 6.5625 C-20.70387743 8.32378362 -23.81604605 8.63931431 -28 9 C-28.33 9.99 -28.66 10.98 -29 12 C-30.98 12 -32.96 12 -35 12 C-27.07724568 3.09683796 -11.54118388 -0.8314974 0 0 Z " fill="#AA56D3" transform="translate(80,12)"/>
<path d="M0 0 C0.66 0.33 1.32 0.66 2 1 C-0.53363068 5.22271781 -2.56620325 7.78310162 -7 10 C-6.34 10 -5.68 10 -5 10 C-5 10.66 -5 11.32 -5 12 C-4.34 12.33 -3.68 12.66 -3 13 C-4.375 14.5 -4.375 14.5 -6 16 C-6.66 16 -7.32 16 -8 16 C-8 15.34 -8 14.68 -8 14 C-11.08628136 15.02876045 -11.99584162 15.56015502 -14 18 C-14.70211894 19.65204456 -15.36971413 21.31923769 -16 23 C-16.66 23.99 -17.32 24.98 -18 26 C-18.66 26 -19.32 26 -20 26 C-18.66201707 21.11121622 -16.48525153 17.49447086 -13.375 13.5625 C-12.71491943 12.71425659 -12.71491943 12.71425659 -12.04150391 11.84887695 C-8.4668163 7.3595695 -4.55895838 3.50199317 0 0 Z " fill="#A643D5" transform="translate(43,24)"/>
<path d="M0 0 C1.37478516 0.01740234 1.37478516 0.01740234 2.77734375 0.03515625 C3.69644531 0.04417969 4.61554688 0.05320312 5.5625 0.0625 C6.27277344 0.07410156 6.98304687 0.08570313 7.71484375 0.09765625 C4.71484375 2.09765625 4.71484375 2.09765625 -1.28515625 3.09765625 C-1.61515625 22.56765625 -1.94515625 42.03765625 -2.28515625 62.09765625 C-0.96515625 62.42765625 0.35484375 62.75765625 1.71484375 63.09765625 C-0.22265625 63.66015625 -0.22265625 63.66015625 -2.28515625 64.09765625 C-4.06432092 62.31849158 -3.4128046 59.71452326 -3.41455078 57.30859375 C-3.41770294 56.07061035 -3.4208551 54.83262695 -3.42410278 53.55712891 C-3.422313 52.19563766 -3.42026205 50.83414674 -3.41796875 49.47265625 C-3.41864184 48.08642561 -3.41961191 46.70019508 -3.42086792 45.31396484 C-3.42234465 42.40526203 -3.42019115 39.49658988 -3.41552734 36.58789062 C-3.40983006 32.85169027 -3.41310919 29.11556173 -3.41909981 25.37936401 C-3.4227061 22.51586359 -3.42156652 19.65238032 -3.41897202 16.78887939 C-3.41830293 15.41090893 -3.41913051 14.03293693 -3.42145157 12.65496826 C-3.42397917 10.73221871 -3.41944649 8.80946373 -3.41455078 6.88671875 C-3.41375519 5.79053223 -3.41295959 4.6943457 -3.41213989 3.56494141 C-3.24705779 0.35740531 -3.2008895 0.13679015 0 0 Z " fill="#A65DCB" transform="translate(95.28515625,12.90234375)"/>
<path d="M0 0 C4.7670878 7.1506317 5.53665629 15.59590371 6 24 C5.01 24.66 4.02 25.32 3 26 C2.67 25.34 2.34 24.68 2 24 C2.66 24 3.32 24 4 24 C3.855625 23.26394531 3.71125 22.52789062 3.5625 21.76953125 C3.376875 20.79371094 3.19125 19.81789063 3 18.8125 C2.814375 17.84957031 2.62875 16.88664062 2.4375 15.89453125 C2.03122388 13.2065794 1.92066428 10.71228981 2 8 C1.34 8 0.68 8 0 8 C0 5.36 0 2.72 0 0 Z " fill="#B471D8" transform="translate(151,51)"/>
<path d="M0 0 C0.33 1.32 0.66 2.64 1 4 C0.01 4.495 0.01 4.495 -1 5 C-1 4.01 -1 3.02 -1 2 C-2.918125 2.2475 -2.918125 2.2475 -4.875 2.5 C-9.9284158 3.07041736 -14.92062649 3.09543708 -20 3 C-16.89951812 1.2710254 -14.04775326 0.4554108 -10.5625 -0.1875 C-9.63566406 -0.36667969 -8.70882812 -0.54585938 -7.75390625 -0.73046875 C-4.91370276 -1.00844611 -2.75082995 -0.70393289 0 0 Z " fill="#B366D7" transform="translate(154,86)"/>
<path d="M0 0 C1 3 1 3 0 6 C0.39397335 8.63804589 0.39397335 8.63804589 1 11 C0.34 11 -0.32 11 -1 11 C-1.33 11.66 -1.66 12.32 -2 13 C-2.66 13 -3.32 13 -4 13 C-4.33 13.66 -4.66 14.32 -5 15 C-5.68359375 13.359375 -5.68359375 13.359375 -6 11 C-4.78515625 8.203125 -4.78515625 8.203125 -3.0625 5.25 C-2.49660156 4.26515625 -1.93070312 3.2803125 -1.34765625 2.265625 C-0.90292969 1.51796875 -0.45820312 0.7703125 0 0 Z " fill="#AA55D5" transform="translate(101,113)"/>
<path d="M0 0 C5.13503344 0.64187918 9.9943454 1.68272247 15 3 C14.34 3.66 13.68 4.32 13 5 C8.24109792 4.68794085 4.35081734 4.03944563 0 2 C0 1.34 0 0.68 0 0 Z " fill="#AC5FD4" transform="translate(56,145)"/>
<path d="M0 0 C0.66 0.66 1.32 1.32 2 2 C1.625 4.125 1.625 4.125 1 6 C0.34 5.01 -0.32 4.02 -1 3 C-3.62697064 2.77862607 -6.00893964 2.71837975 -8.625 2.8125 C-9.33140625 2.82603516 -10.0378125 2.83957031 -10.765625 2.85351562 C-12.51074128 2.8888896 -14.25546608 2.94269779 -16 3 C-10.87022151 0.29200535 -5.78900133 -0.39470464 0 0 Z " fill="#B775D6" transform="translate(80,12)"/>
<path d="M0 0 C0.33 0 0.66 0 1 0 C1.08090971 1.62418745 1.13914995 3.24951745 1.1875 4.875 C1.22230469 5.77992188 1.25710937 6.68484375 1.29296875 7.6171875 C1.19628906 8.40351563 1.09960938 9.18984375 1 10 C-2.45214853 12.30143236 -3.23479324 12.13833854 -7.1875 11.625 C-8.08855469 11.51414063 -8.98960938 11.40328125 -9.91796875 11.2890625 C-10.60503906 11.19367188 -11.29210937 11.09828125 -12 11 C-8.36383344 9.0210244 -5.11574371 8.4748935 -1 8 C-0.67 5.36 -0.34 2.72 0 0 Z " fill="#B16AD0" transform="translate(81,140)"/>
<path d="M0 0 C2.475 0.495 2.475 0.495 5 1 C5 1.66 5 2.32 5 3 C5.928125 3.103125 6.85625 3.20625 7.8125 3.3125 C11.02464205 4.00531495 12.11930017 4.3879169 14 7 C14 7.66 14 8.32 14 9 C8.40440609 7.60110152 4.29704147 4.74082545 0 1 C0 0.67 0 0.34 0 0 Z " fill="#B370D4" transform="translate(40,136)"/>
<path d="M0 0 C0.66 0.33 1.32 0.66 2 1 C-0.49725564 5.16209273 -2.47692855 8.02840475 -7 10 C-7.99 9.67 -8.98 9.34 -10 9 C-6.7 6.03 -3.4 3.06 0 0 Z " fill="#B976D9" transform="translate(43,24)"/>
<path d="M0 0 C0.66 0 1.32 0 2 0 C2.14285714 8.57142857 2.14285714 8.57142857 1 12 C1.99 12.33 2.98 12.66 4 13 C2.68 13 1.36 13 0 13 C-0.33 12.67 -0.66 12.34 -1 12 C-0.90997602 9.97591245 -0.75358962 7.95455713 -0.5625 5.9375 C-0.46066406 4.83277344 -0.35882813 3.72804687 -0.25390625 2.58984375 C-0.17011719 1.73519531 -0.08632812 0.88054687 0 0 Z " fill="#B36DD4" transform="translate(91,136)"/>
<path d="M0 0 C0.99 0.33 1.98 0.66 3 1 C3.38873828 2.95565258 3.76060833 4.91466504 4.125 6.875 C4.33382813 7.96554688 4.54265625 9.05609375 4.7578125 10.1796875 C4.83773438 11.11039063 4.91765625 12.04109375 5 13 C4.34 13.66 3.68 14.32 3 15 C2.491217 13.44033782 1.99336531 11.87710759 1.5 10.3125 C1.2215625 9.44238281 0.943125 8.57226562 0.65625 7.67578125 C0.00149195 5.00608323 -0.11831495 2.73603316 0 0 Z " fill="#B369D5" transform="translate(18,96)"/>
<path d="M0 0 C0.33 1.32 0.66 2.64 1 4 C0.01 4.495 0.01 4.495 -1 5 C-1.69658363 6.65438613 -2.36096883 8.32254318 -3 10 C-3.99 11.485 -3.99 11.485 -5 13 C-5.66 13 -6.32 13 -7 13 C-5.58832253 7.73829306 -3.25149768 4.27828642 0 0 Z " fill="#BB7DD9" transform="translate(30,37)"/>
<path d="M0 0 C4.75481646 0.57634139 7.97048212 2.55068521 12 5 C11.01 5.66 10.02 6.32 9 7 C9 6.34 9 5.68 9 5 C4.545 4.01 4.545 4.01 0 3 C0 2.01 0 1.02 0 0 Z " fill="#B676DA" transform="translate(115,17)"/>
<path d="M0 0 C0.66 0.33 1.32 0.66 2 1 C-1.32307692 7.64615385 -1.32307692 7.64615385 -4.75 9.4375 C-5.86375 9.7159375 -5.86375 9.7159375 -7 10 C-4.93992341 6.39486597 -2.6486859 3.19668988 0 0 Z " fill="#B46ED4" transform="translate(109,103)"/>
<path d="M0 0 C1.9375 0.75 1.9375 0.75 4 2 C4.625 4.0625 4.625 4.0625 5 6 C5.66 6.33 6.32 6.66 7 7 C6.01 7 5.02 7 4 7 C0 2.65714286 0 2.65714286 0 0 Z " fill="#B672D4" transform="translate(28,122)"/>
<path d="M0 0 C0.66 0 1.32 0 2 0 C2 0.66 2 1.32 2 2 C3.32 2.33 4.64 2.66 6 3 C6.33 2.34 6.66 1.68 7 1 C6.67 2.32 6.34 3.64 6 5 C3.69 4.67 1.38 4.34 -1 4 C-0.67 2.68 -0.34 1.36 0 0 Z " fill="#AC51D7" transform="translate(148,145)"/>
<path d="M0 0 C0 1.98 0 3.96 0 6 C-0.99 6 -1.98 6 -3 6 C-3.33 4.35 -3.66 2.7 -4 1 C-1 0 -1 0 0 0 Z " fill="#A44DD4" transform="translate(28,113)"/>
<path d="M0 0 C3.53600465 1.91135386 5.78972846 3.62642766 8 7 C5 7 5 7 3.3125 5.625 C2 4 2 4 2 2 C1.34 2 0.68 2 0 2 C0 1.34 0 0.68 0 0 Z " fill="#BC7EDC" transform="translate(130,25)"/>
<path d="M0 0 C1.875 0.25 1.875 0.25 4 1 C5.25 3.0625 5.25 3.0625 6 5 C4.35 5 2.7 5 1 5 C0.67 3.35 0.34 1.7 0 0 Z " fill="#AF67D7" transform="translate(138,34)"/>
<path d="M0 0 C1.67542976 0.28604898 3.34385343 0.61781233 5 1 C5.33 2.32 5.66 3.64 6 5 C5.01 5.495 5.01 5.495 4 6 C3.67 5.01 3.34 4.02 3 3 C0.99983534 1.79117904 0.99983534 1.79117904 -1 1 C-0.67 0.67 -0.34 0.34 0 0 Z " fill="#B478D1" transform="translate(149,85)"/>
<path d="M0 0 C0.66 0.33 1.32 0.66 2 1 C1.34 2.32 0.68 3.64 0 5 C-1.98 5 -3.96 5 -6 5 C-4.06745228 2.9754262 -2.36841312 1.57894208 0 0 Z " fill="#B975DC" transform="translate(51,19)"/>
</svg>
